<svg id="svg" xmlns="http://www.w3.org/2000/svg" xmlns:xlink="http://www.w3.org/1999/xlink" width="400" height="400" viewBox="0, 0, 400,400"><g id="svgg"><path id="path0" d="M167.854 61.618 C 166.690 63.294,164.327 65.780,162.077 67.692 C 160.788 68.788,159.554 69.854,159.336 70.061 C 158.649 70.715,157.908 71.290,157.751 71.290 C 157.668 71.290,157.423 71.489,157.206 71.733 C 156.990 71.976,156.101 72.655,155.231 73.241 C 154.361 73.828,153.437 74.504,153.178 74.745 C 152.919 74.986,152.572 75.182,152.407 75.182 C 152.243 75.182,152.072 75.276,152.028 75.391 C 151.892 75.739,145.751 79.683,142.879 81.267 C 142.513 81.469,141.557 82.005,140.754 82.460 C 139.220 83.328,135.751 85.163,134.307 85.871 C 131.259 87.364,130.253 87.835,130.104 87.835 C 130.011 87.835,129.257 88.163,128.428 88.564 C 127.599 88.966,126.822 89.294,126.701 89.294 C 126.580 89.294,125.696 89.629,124.737 90.039 C 123.777 90.448,122.774 90.868,122.506 90.973 C 119.991 91.955,112.982 94.065,111.679 94.233 C 111.210 94.293,109.732 94.584,108.394 94.879 C 106.998 95.186,104.976 95.433,103.650 95.457 L 101.338 95.499 101.184 93.917 C 100.918 91.180,100.961 87.499,101.322 82.414 C 101.992 72.951,101.999 72.749,101.674 72.749 C 101.508 72.749,100.653 72.968,99.774 73.234 C 95.031 74.673,88.907 76.419,88.078 76.569 C 87.743 76.630,87.251 76.772,86.983 76.886 C 86.715 76.999,86.223 77.148,85.888 77.216 C 85.194 77.357,81.984 78.286,78.576 79.334 C 77.298 79.727,76.010 80.049,75.714 80.049 C 75.418 80.049,74.986 80.149,74.753 80.271 C 74.377 80.470,72.590 81.008,69.708 81.790 C 69.173 81.936,68.078 82.254,67.275 82.498 C 66.472 82.742,65.322 83.062,64.720 83.209 C 64.118 83.355,63.406 83.572,63.139 83.689 C 62.223 84.092,59.517 84.915,59.107 84.915 C 57.760 84.915,58.271 87.939,61.220 97.417 C 61.673 98.873,62.044 100.179,62.044 100.319 C 62.044 100.459,62.357 101.457,62.740 102.537 C 63.124 103.617,64.121 106.636,64.956 109.246 C 65.791 111.855,66.532 114.155,66.603 114.355 C 66.673 114.556,67.330 116.417,68.062 118.491 C 68.794 120.566,69.538 122.774,69.715 123.400 C 69.891 124.025,70.138 124.737,70.262 124.981 C 70.387 125.226,70.786 126.302,71.149 127.372 C 71.511 128.443,71.912 129.538,72.039 129.805 C 72.278 130.308,73.479 133.597,74.128 135.523 C 74.330 136.125,74.917 137.658,75.431 138.929 C 77.251 143.432,78.893 147.580,79.237 148.540 C 79.428 149.075,79.785 149.951,80.031 150.487 C 80.276 151.022,80.879 152.432,81.370 153.621 C 82.600 156.598,85.548 162.627,86.527 164.168 C 87.458 165.633,87.491 165.586,85.036 166.285 C 84.234 166.514,82.529 167.022,81.248 167.414 C 79.967 167.806,78.740 168.127,78.522 168.127 C 78.304 168.127,77.874 168.231,77.566 168.358 C 77.017 168.585,74.287 169.413,69.951 170.667 C 67.723 171.312,67.143 171.439,62.956 172.195 L 60.584 172.623 60.584 173.367 C 60.584 174.737,63.119 181.488,65.195 185.645 C 66.220 187.697,68.774 192.478,69.239 193.215 C 69.564 193.730,69.830 194.226,69.830 194.317 C 69.830 194.408,70.142 194.985,70.523 195.599 C 70.904 196.213,71.534 197.250,71.922 197.904 C 72.310 198.558,72.792 199.344,72.993 199.651 C 73.193 199.957,73.815 200.955,74.374 201.868 C 74.932 202.781,75.561 203.747,75.770 204.015 C 75.980 204.282,76.932 205.596,77.886 206.934 C 80.181 210.155,80.345 210.307,80.933 209.777 C 81.183 209.552,81.834 209.064,82.380 208.693 C 82.927 208.322,83.584 207.827,83.840 207.592 C 84.320 207.152,87.694 204.708,89.241 203.679 C 89.720 203.361,90.338 202.886,90.615 202.623 C 90.892 202.361,92.077 201.487,93.248 200.681 C 94.419 199.876,95.377 199.119,95.377 199.000 C 95.377 198.881,95.541 198.783,95.742 198.783 C 95.943 198.783,96.108 198.701,96.109 198.601 C 96.110 198.501,96.520 198.148,97.021 197.818 C 97.522 197.488,98.256 196.956,98.651 196.636 L 99.371 196.054 99.886 196.652 L 100.401 197.251 101.086 196.661 C 101.958 195.911,101.447 195.373,107.572 203.492 C 108.769 205.078,109.909 206.537,110.105 206.733 C 110.302 206.930,110.463 207.165,110.463 207.256 C 110.464 207.347,110.820 207.817,111.254 208.301 C 111.688 208.785,112.841 210.223,113.816 211.497 C 114.791 212.771,115.810 214.072,116.082 214.389 C 116.353 214.705,116.762 215.182,116.991 215.450 C 117.220 215.718,118.491 217.305,119.816 218.978 C 121.141 220.651,122.424 222.238,122.669 222.506 C 123.244 223.136,124.559 224.615,125.192 225.342 C 125.464 225.656,126.657 227.089,127.842 228.528 C 129.027 229.967,130.090 231.144,130.205 231.144 C 130.320 231.144,130.416 231.280,130.419 231.448 C 130.422 231.615,130.996 232.364,131.696 233.113 C 133.142 234.661,134.872 236.614,137.601 239.781 C 138.639 240.985,139.790 242.299,140.159 242.701 C 140.529 243.102,141.361 244.033,142.009 244.769 C 142.657 245.505,143.653 246.558,144.221 247.110 C 144.790 247.661,145.255 248.194,145.255 248.294 C 145.255 248.394,145.693 248.900,146.229 249.420 C 146.764 249.939,147.202 250.410,147.202 250.465 C 147.202 250.639,139.871 250.361,138.023 250.117 C 127.680 248.752,103.406 248.434,82.725 249.393 C 73.132 249.837,72.649 249.834,73.297 249.336 C 73.598 249.105,73.981 248.913,74.148 248.911 C 74.316 248.908,74.453 248.813,74.453 248.701 C 74.453 248.589,74.699 248.371,75.000 248.218 C 75.301 248.066,76.204 247.554,77.007 247.082 C 77.810 246.610,78.987 245.993,79.623 245.710 C 80.259 245.427,80.779 245.114,80.779 245.015 C 80.779 244.916,81.273 244.646,81.878 244.415 C 82.483 244.184,83.112 243.866,83.277 243.707 C 83.442 243.549,84.398 243.012,85.401 242.515 C 86.405 242.018,87.391 241.516,87.591 241.400 C 87.792 241.284,88.285 241.023,88.686 240.821 C 89.446 240.438,91.632 239.237,93.309 238.281 C 93.844 237.976,94.884 237.392,95.620 236.984 C 97.868 235.737,98.658 235.238,98.743 235.011 C 98.788 234.891,98.932 234.793,99.064 234.793 C 99.354 234.793,100.000 234.177,100.000 233.900 C 100.000 233.792,99.343 233.082,98.540 232.322 C 97.737 231.563,97.080 230.873,97.080 230.789 C 97.080 230.705,96.810 230.344,96.479 229.987 C 96.148 229.630,95.628 228.841,95.323 228.234 C 93.536 224.672,90.898 220.925,90.177 220.925 C 89.962 220.925,86.035 223.901,85.929 224.145 C 85.884 224.247,85.702 224.331,85.523 224.331 C 85.345 224.331,85.162 224.425,85.118 224.539 C 85.049 224.714,79.649 228.560,78.407 229.319 C 78.188 229.453,76.886 230.301,75.515 231.204 C 74.144 232.108,72.953 232.847,72.868 232.847 C 72.784 232.847,72.238 233.175,71.655 233.577 C 71.071 233.978,70.530 234.307,70.452 234.307 C 70.375 234.307,69.765 234.691,69.097 235.160 C 68.430 235.629,67.883 235.952,67.883 235.877 C 67.883 235.803,67.527 236.009,67.092 236.335 C 66.658 236.662,65.645 237.273,64.842 237.693 C 63.310 238.494,61.571 239.452,60.036 240.340 C 59.535 240.630,59.124 240.809,59.124 240.738 C 59.124 240.666,58.768 240.871,58.333 241.193 C 57.581 241.749,56.865 242.096,56.533 242.065 C 56.449 242.057,56.313 242.142,56.232 242.254 C 56.150 242.366,55.262 242.874,54.258 243.382 C 53.254 243.891,51.942 244.575,51.342 244.903 C 50.742 245.231,50.116 245.499,49.951 245.499 C 49.787 245.499,49.134 245.827,48.501 246.229 C 47.868 246.630,47.235 246.959,47.093 246.960 C 46.952 246.960,46.097 247.341,45.192 247.805 C 44.287 248.270,43.520 248.636,43.488 248.619 C 43.457 248.602,42.719 248.917,41.849 249.319 C 38.726 250.763,36.336 251.797,34.063 252.689 C 32.792 253.188,31.162 253.864,30.442 254.192 C 29.721 254.520,28.888 254.833,28.590 254.887 C 28.293 254.941,27.568 255.190,26.981 255.440 C 24.809 256.366,21.510 257.548,19.465 258.133 C 17.316 258.748,15.572 259.433,15.572 259.661 C 15.572 259.892,18.469 261.223,19.681 261.550 C 20.166 261.681,21.137 262.064,21.838 262.402 C 22.538 262.740,23.223 263.017,23.360 263.017 C 23.496 263.017,23.798 263.113,24.030 263.231 C 24.453 263.445,27.078 264.572,28.224 265.031 C 28.558 265.165,29.349 265.539,29.981 265.861 C 30.614 266.183,31.216 266.455,31.320 266.464 C 31.770 266.506,37.786 269.262,39.538 270.228 C 41.320 271.212,44.282 272.694,44.282 272.601 C 44.282 272.546,44.742 272.790,45.304 273.145 C 45.865 273.499,47.261 274.284,48.406 274.888 C 49.550 275.492,50.760 276.174,51.095 276.404 C 51.429 276.634,52.141 277.058,52.676 277.347 C 53.212 277.636,53.937 278.061,54.289 278.292 C 54.641 278.522,55.489 279.039,56.174 279.440 C 56.860 279.842,57.421 280.252,57.421 280.353 C 57.421 280.453,57.544 280.535,57.694 280.535 C 57.974 280.535,60.289 281.979,61.779 283.083 C 62.235 283.422,62.746 283.698,62.914 283.698 C 63.082 283.698,63.256 283.786,63.301 283.893 C 63.345 284.001,64.586 284.896,66.058 285.884 C 67.530 286.871,68.879 287.823,69.056 288.000 C 69.233 288.177,69.472 288.321,69.586 288.321 C 69.701 288.321,69.940 288.463,70.116 288.637 C 70.293 288.811,70.985 289.326,71.655 289.782 C 72.324 290.239,73.137 290.857,73.463 291.157 C 73.788 291.456,74.144 291.646,74.254 291.578 C 74.363 291.511,74.453 291.550,74.453 291.666 C 74.453 291.782,75.507 292.637,76.797 293.566 C 78.086 294.495,79.318 295.426,79.534 295.634 C 79.750 295.842,80.803 296.656,81.873 297.443 C 83.742 298.815,85.110 299.886,85.888 300.583 C 86.089 300.763,86.609 301.091,87.044 301.313 C 87.479 301.534,87.835 301.800,87.835 301.902 C 87.835 302.005,88.656 302.681,89.659 303.406 C 90.663 304.131,91.484 304.785,91.484 304.859 C 91.484 304.934,91.922 305.265,92.457 305.596 C 92.993 305.927,93.431 306.272,93.431 306.364 C 93.431 306.455,93.841 306.780,94.343 307.087 C 94.845 307.393,95.365 307.766,95.499 307.916 C 95.633 308.066,96.235 308.561,96.837 309.018 C 97.439 309.474,98.260 310.149,98.662 310.517 L 99.392 311.187 99.804 310.642 C 100.031 310.343,100.468 309.550,100.775 308.881 C 101.082 308.212,101.401 307.609,101.485 307.543 C 101.568 307.476,102.001 306.709,102.447 305.839 C 102.894 304.970,103.327 304.203,103.410 304.136 C 103.494 304.069,103.888 303.412,104.287 302.676 C 105.228 300.940,105.688 300.151,105.844 300.000 C 105.914 299.933,106.106 299.605,106.271 299.270 C 106.435 298.936,106.954 298.005,107.422 297.202 C 107.890 296.399,108.561 295.195,108.913 294.526 C 109.265 293.856,109.634 293.254,109.732 293.187 C 109.831 293.120,110.214 292.464,110.584 291.727 C 110.954 290.991,111.332 290.335,111.424 290.268 C 111.689 290.076,114.842 284.025,114.842 283.708 C 114.842 283.480,111.450 281.685,110.936 281.642 C 110.862 281.635,109.876 281.208,108.746 280.691 C 106.627 279.723,106.007 279.446,104.136 278.636 C 103.534 278.375,102.419 277.874,101.658 277.524 C 100.897 277.173,100.188 276.886,100.083 276.886 C 99.978 276.886,99.122 276.518,98.182 276.069 C 97.241 275.620,95.815 274.975,95.012 274.636 C 94.209 274.297,92.512 273.561,91.241 273.000 C 89.970 272.440,88.163 271.650,87.226 271.245 C 86.290 270.840,85.085 270.311,84.550 270.068 C 84.015 269.825,83.193 269.462,82.725 269.261 C 82.257 269.060,81.127 268.559,80.214 268.146 C 79.302 267.734,78.494 267.397,78.419 267.397 C 78.345 267.397,77.613 267.079,76.794 266.691 C 75.975 266.302,75.113 265.923,74.878 265.847 C 71.969 264.904,89.703 264.470,96.959 265.307 C 103.345 266.044,109.886 267.016,111.957 267.538 C 112.713 267.728,113.650 267.883,114.040 267.883 C 114.431 267.883,115.619 268.113,116.682 268.394 C 117.744 268.675,119.544 269.105,120.681 269.349 C 123.504 269.955,127.051 270.806,127.494 270.984 C 127.695 271.064,128.108 271.160,128.411 271.196 C 128.715 271.232,130.029 271.592,131.331 271.997 C 132.633 272.402,134.848 273.075,136.253 273.492 C 137.658 273.909,140.943 274.961,143.552 275.829 C 146.162 276.696,148.680 277.489,149.148 277.590 C 149.617 277.692,150.383 277.954,150.852 278.174 C 152.076 278.748,155.188 280.039,156.326 280.445 C 156.861 280.636,157.518 280.893,157.786 281.018 C 159.845 281.973,160.058 282.000,160.552 281.372 C 160.809 281.046,161.097 280.779,161.192 280.779 C 161.288 280.779,161.764 280.467,162.252 280.087 C 162.740 279.706,163.960 278.916,164.964 278.331 C 165.967 277.746,166.843 277.196,166.910 277.109 C 166.977 277.022,167.689 276.589,168.491 276.145 C 169.294 275.702,170.279 275.113,170.680 274.835 C 171.081 274.558,171.793 274.126,172.262 273.875 C 172.731 273.624,173.169 273.350,173.236 273.266 C 173.303 273.183,173.796 272.896,174.331 272.630 C 174.866 272.364,175.359 272.081,175.426 272.001 C 175.493 271.921,176.095 271.540,176.764 271.155 C 177.433 270.770,178.114 270.325,178.278 270.166 C 178.442 270.007,178.960 269.640,179.430 269.349 C 181.973 267.778,182.483 266.791,181.204 265.914 C 180.769 265.616,180.195 265.178,179.927 264.941 C 179.659 264.704,178.843 263.982,178.112 263.337 C 175.242 260.805,170.618 256.185,168.173 253.406 C 166.760 251.800,165.323 250.199,164.979 249.848 C 163.837 248.679,163.221 247.948,160.545 244.582 C 159.085 242.745,157.592 240.870,157.229 240.416 C 156.086 238.987,152.635 234.274,151.063 231.995 C 150.232 230.791,149.479 229.751,149.389 229.684 C 149.159 229.514,144.328 222.205,143.908 221.393 C 143.718 221.027,143.424 220.580,143.254 220.400 C 142.900 220.026,140.633 216.356,140.633 216.157 C 140.633 216.085,140.373 215.677,140.055 215.251 C 139.737 214.825,139.118 213.820,138.680 213.017 C 138.242 212.214,137.814 211.502,137.728 211.436 C 137.643 211.369,137.175 210.546,136.687 209.608 C 136.200 208.670,135.405 207.247,134.921 206.445 C 133.752 204.508,128.750 194.362,127.726 191.849 C 127.617 191.582,127.255 190.706,126.921 189.903 C 125.747 187.081,124.989 185.025,124.681 183.820 C 124.509 183.151,124.143 181.782,123.867 180.779 C 123.102 177.994,123.127 177.892,124.866 176.636 C 126.948 175.134,128.565 173.917,128.710 173.745 C 128.777 173.666,129.014 173.491,129.236 173.358 C 130.053 172.865,133.509 170.349,133.884 169.974 C 134.405 169.453,134.522 169.482,134.793 170.195 C 135.083 170.956,135.243 170.955,136.076 170.182 C 136.882 169.434,137.159 169.557,137.359 170.751 C 137.443 171.248,138.119 173.242,138.861 175.182 C 139.603 177.123,140.581 179.689,141.034 180.884 C 141.487 182.080,141.908 183.108,141.969 183.169 C 142.099 183.300,143.327 182.370,144.532 181.227 C 145.004 180.780,145.788 180.114,146.275 179.748 C 146.762 179.382,147.308 178.944,147.488 178.775 C 148.365 177.953,151.704 175.082,153.771 173.373 C 155.043 172.322,156.251 171.275,156.458 171.046 C 156.664 170.818,157.073 170.502,157.367 170.345 C 158.252 169.871,158.249 169.103,157.352 166.642 C 156.007 162.950,153.670 155.278,153.142 152.823 C 151.570 145.503,151.562 145.450,151.531 141.393 L 151.500 137.410 149.412 136.457 C 148.263 135.933,146.912 135.315,146.410 135.082 L 145.496 134.660 142.882 137.231 C 140.427 139.646,137.992 141.826,135.549 143.796 C 134.968 144.264,134.349 144.784,134.174 144.951 C 133.998 145.119,133.781 145.255,133.690 145.255 C 133.599 145.255,133.110 145.584,132.603 145.985 C 132.097 146.387,131.561 146.715,131.413 146.715 C 131.265 146.715,131.144 146.825,131.144 146.959 C 131.144 147.092,131.026 147.202,130.883 147.202 C 130.740 147.202,130.165 147.513,129.606 147.892 C 126.260 150.163,117.069 153.645,116.566 152.832 C 116.448 152.641,116.151 152.632,115.561 152.801 C 115.100 152.933,114.607 153.041,114.464 153.041 C 113.989 153.041,111.196 146.338,110.713 144.039 C 110.614 143.571,110.198 141.873,109.787 140.268 C 109.078 137.495,108.478 134.776,108.486 134.371 C 108.488 134.269,108.688 134.154,108.929 134.117 C 110.464 133.881,117.878 131.701,121.290 130.483 C 122.226 130.149,123.759 129.612,124.696 129.290 C 125.633 128.968,126.618 128.611,126.886 128.497 C 127.153 128.383,127.646 128.176,127.981 128.038 C 128.315 127.900,128.972 127.620,129.440 127.416 C 129.909 127.212,130.852 126.825,131.537 126.556 C 132.222 126.287,134.029 125.477,135.552 124.757 C 137.075 124.037,138.677 123.292,139.112 123.100 C 139.547 122.909,139.903 122.669,139.903 122.568 C 139.903 122.467,140.064 122.384,140.261 122.384 C 140.458 122.384,141.088 122.109,141.660 121.773 C 142.232 121.437,143.111 120.973,143.613 120.743 C 144.115 120.512,144.526 120.240,144.526 120.137 C 144.526 120.035,144.688 119.951,144.887 119.951 C 145.086 119.951,145.782 119.623,146.434 119.221 C 147.087 118.820,147.736 118.491,147.878 118.491 C 148.019 118.491,148.171 118.400,148.216 118.289 C 148.260 118.178,149.103 117.603,150.089 117.012 C 151.074 116.420,152.062 115.827,152.284 115.693 C 153.254 115.109,158.318 111.540,158.759 111.130 C 159.235 110.688,159.256 110.692,159.747 111.307 L 160.249 111.936 160.948 111.335 C 161.333 111.004,161.730 110.783,161.829 110.845 C 162.624 111.336,165.621 118.719,166.292 121.837 C 166.497 122.789,166.640 122.805,167.896 122.012 C 169.260 121.151,175.118 118.239,181.022 115.487 C 188.843 111.842,193.858 109.223,194.404 108.500 C 194.471 108.411,194.772 108.261,195.073 108.167 C 195.796 107.942,195.770 107.633,194.778 104.623 C 193.652 101.210,193.013 98.989,192.605 97.080 C 192.420 96.210,192.029 94.623,191.737 93.552 C 191.446 92.482,191.120 91.058,191.013 90.389 C 190.720 88.552,188.271 77.179,187.539 74.255 C 187.314 73.357,187.062 73.059,185.791 72.194 C 184.454 71.284,178.496 67.314,173.358 63.910 C 172.287 63.201,170.883 62.217,170.237 61.724 C 168.799 60.626,168.550 60.615,167.854 61.618 M240.146 69.451 C 238.206 70.420,236.182 71.449,235.648 71.738 C 235.115 72.027,234.600 72.263,234.503 72.263 C 234.407 72.263,233.748 72.607,233.040 73.029 C 232.331 73.450,231.615 73.796,231.448 73.799 C 231.280 73.802,231.144 73.895,231.144 74.006 C 231.144 74.118,231.024 74.209,230.879 74.209 C 230.512 74.209,225.445 76.711,225.345 76.942 C 225.300 77.045,225.151 77.129,225.012 77.129 C 224.874 77.129,222.557 78.240,219.862 79.598 C 217.168 80.956,214.718 82.188,214.418 82.336 C 213.739 82.669,213.680 84.710,214.223 89.063 C 214.798 93.673,215.070 95.159,215.702 97.130 C 216.032 98.161,216.302 99.207,216.302 99.454 C 216.302 99.701,216.391 100.007,216.501 100.134 C 216.611 100.261,216.998 101.186,217.361 102.190 C 217.937 103.783,218.678 105.447,220.013 108.151 C 220.874 109.895,222.916 113.360,223.243 113.631 C 223.440 113.795,223.601 114.070,223.601 114.243 C 223.601 114.416,223.685 114.594,223.788 114.639 C 224.033 114.745,225.638 117.272,225.518 117.364 C 225.467 117.403,225.043 117.575,224.574 117.747 C 223.671 118.078,222.696 118.469,216.302 121.063 C 211.737 122.915,210.965 123.241,209.626 123.876 C 209.099 124.126,208.582 124.331,208.476 124.331 C 208.371 124.331,207.568 124.659,206.691 125.061 C 205.814 125.462,205.048 125.791,204.988 125.791 C 204.928 125.791,204.161 126.119,203.285 126.521 C 202.408 126.922,201.609 127.251,201.508 127.251 C 201.407 127.251,200.692 127.579,199.918 127.981 C 199.144 128.382,198.410 128.710,198.287 128.710 C 198.163 128.710,197.103 129.162,195.929 129.713 C 191.914 131.600,190.785 132.117,190.677 132.117 C 190.618 132.117,189.434 132.653,188.046 133.308 C 183.069 135.657,181.213 136.496,180.998 136.496 C 180.877 136.496,180.779 136.606,180.779 136.740 C 180.779 136.873,180.677 136.983,180.554 136.983 C 180.356 136.983,175.228 139.365,174.955 139.583 C 174.797 139.710,175.356 141.900,176.279 144.769 C 176.732 146.174,177.399 148.309,177.762 149.513 C 178.124 150.718,178.508 151.922,178.615 152.190 C 178.721 152.457,179.519 154.811,180.389 157.421 C 182.227 162.936,184.088 168.281,184.414 168.978 C 184.539 169.246,184.712 169.738,184.798 170.073 C 184.885 170.408,185.316 171.612,185.757 172.749 C 186.604 174.935,187.481 177.227,188.922 181.022 C 189.405 182.293,190.059 183.936,190.375 184.672 C 190.691 185.408,191.405 187.159,191.963 188.564 C 192.520 189.970,193.308 191.886,193.713 192.822 C 194.119 193.759,194.757 195.237,195.131 196.107 C 196.365 198.974,197.840 202.286,198.600 203.893 C 199.011 204.763,199.542 205.912,199.781 206.448 C 200.566 208.211,203.895 215.192,204.307 215.937 C 204.529 216.338,205.320 217.882,206.066 219.367 C 206.811 220.852,207.541 222.220,207.688 222.408 C 207.835 222.596,208.382 223.571,208.904 224.574 C 209.427 225.578,209.911 226.454,209.982 226.521 C 210.052 226.588,210.380 227.162,210.711 227.798 C 211.042 228.434,211.395 228.954,211.496 228.954 C 211.597 228.954,211.679 229.092,211.679 229.261 C 211.679 229.430,212.062 230.138,212.530 230.833 C 212.999 231.529,213.382 232.166,213.382 232.250 C 213.382 232.462,216.956 237.347,217.350 237.674 C 217.593 237.876,218.155 237.606,219.697 236.549 C 220.812 235.784,221.900 235.049,222.115 234.915 C 222.330 234.781,222.561 234.607,222.628 234.528 C 222.746 234.388,228.575 230.408,230.535 229.128 C 231.071 228.779,231.800 228.268,232.155 227.994 C 232.511 227.719,232.912 227.494,233.047 227.494 C 233.182 227.494,233.329 227.403,233.374 227.293 C 233.418 227.182,234.331 226.506,235.401 225.791 C 236.472 225.075,237.384 224.399,237.429 224.289 C 237.474 224.178,237.645 224.088,237.809 224.088 C 237.973 224.088,238.324 223.896,238.589 223.662 C 239.404 222.940,240.600 222.141,240.866 222.141 C 241.005 222.141,241.120 222.059,241.121 221.959 C 241.122 221.858,241.532 221.505,242.033 221.173 C 242.534 220.841,243.514 220.157,244.211 219.652 C 245.707 218.569,245.926 218.534,246.131 219.350 L 246.285 219.966 247.092 219.350 C 248.082 218.596,248.337 218.582,248.556 219.271 C 248.649 219.565,249.410 221.290,250.246 223.103 C 253.873 230.968,253.618 229.820,252.007 231.029 C 251.305 231.557,250.675 232.052,250.608 232.130 C 250.541 232.207,249.975 232.619,249.349 233.044 C 248.724 233.470,248.039 233.991,247.828 234.201 C 247.618 234.412,247.445 234.501,247.445 234.400 C 247.445 234.298,247.232 234.427,246.970 234.686 C 246.191 235.461,245.777 235.766,245.509 235.766 C 245.370 235.766,245.255 235.876,245.255 236.010 C 245.255 236.144,245.091 236.253,244.891 236.253 C 244.690 236.253,244.525 236.335,244.523 236.436 C 244.522 236.536,243.865 237.041,243.064 237.557 C 242.262 238.074,241.606 238.583,241.606 238.689 C 241.606 238.795,241.305 239.001,240.937 239.147 C 240.569 239.293,239.775 239.793,239.173 240.260 C 238.571 240.726,237.476 241.514,236.740 242.012 C 236.004 242.509,235.237 243.060,235.036 243.237 C 234.624 243.600,232.297 245.256,230.662 246.351 C 230.062 246.752,229.405 247.210,229.202 247.369 C 228.544 247.881,226.659 249.248,225.418 250.112 C 224.753 250.575,224.173 251.040,224.128 251.146 C 224.084 251.252,223.919 251.338,223.763 251.338 C 223.607 251.339,223.151 251.625,222.749 251.975 C 222.348 252.325,221.636 252.871,221.168 253.189 C 220.076 253.930,219.035 254.725,218.274 255.401 L 217.672 255.936 217.110 255.329 L 216.548 254.722 215.908 255.315 L 215.269 255.908 213.289 253.927 C 212.200 252.838,210.981 251.509,210.581 250.973 C 210.181 250.438,209.711 249.850,209.537 249.666 C 209.363 249.482,208.604 248.497,207.850 247.476 C 207.096 246.455,206.340 245.481,206.171 245.310 C 206.001 245.140,205.233 244.045,204.465 242.877 C 203.696 241.710,202.870 240.542,202.628 240.283 C 202.387 240.023,202.190 239.715,202.190 239.597 C 202.190 239.347,200.937 237.629,200.668 237.510 C 200.566 237.465,200.545 237.328,200.621 237.205 C 200.697 237.083,200.643 236.983,200.501 236.983 C 200.359 236.983,200.243 236.839,200.243 236.664 C 200.243 236.488,200.046 236.133,199.805 235.873 C 199.563 235.614,199.053 234.827,198.671 234.124 C 198.289 233.422,197.891 232.847,197.788 232.847 C 197.684 232.847,197.525 232.600,197.433 232.299 C 197.341 231.998,197.129 231.588,196.961 231.387 C 196.793 231.186,196.296 230.367,195.857 229.567 C 195.417 228.767,194.910 227.965,194.731 227.786 C 194.551 227.606,194.404 227.373,194.404 227.268 C 194.404 227.163,193.837 226.103,193.145 224.913 C 191.611 222.278,191.007 221.187,187.591 214.883 C 186.227 212.365,181.889 203.726,180.790 201.338 C 180.236 200.134,179.468 198.491,179.083 197.689 C 178.086 195.607,176.886 192.819,176.886 192.583 C 176.886 192.473,176.622 191.825,176.300 191.143 C 175.507 189.463,174.828 187.584,173.634 183.762 C 173.081 181.991,172.555 180.540,172.465 180.538 C 172.027 180.530,167.884 184.217,164.062 188.017 C 162.682 189.389,161.511 190.511,161.460 190.511 C 161.410 190.511,160.739 191.120,159.970 191.865 C 159.202 192.609,157.711 193.886,156.659 194.702 C 154.483 196.389,154.515 196.301,155.462 197.932 C 155.851 198.601,156.390 199.595,156.660 200.141 C 157.093 201.015,161.084 208.464,162.708 211.429 C 163.036 212.027,163.501 212.793,163.741 213.132 C 163.981 213.470,164.351 214.130,164.562 214.599 C 164.952 215.464,165.252 215.983,167.236 219.221 C 167.851 220.225,168.814 221.813,169.376 222.749 C 169.938 223.686,170.489 224.489,170.600 224.534 C 170.712 224.578,170.803 224.718,170.803 224.844 C 170.803 225.147,176.930 234.411,177.384 234.793 C 177.463 234.860,178.006 235.572,178.591 236.375 C 179.175 237.178,179.742 237.871,179.851 237.916 C 179.960 237.960,180.049 238.127,180.049 238.287 C 180.049 238.447,180.377 238.937,180.779 239.377 C 181.180 239.816,181.509 240.270,181.509 240.384 C 181.509 240.498,181.592 240.629,181.694 240.673 C 181.867 240.748,183.938 243.282,185.441 245.256 C 185.798 245.724,186.427 246.470,186.840 246.913 C 187.253 247.356,187.596 247.794,187.602 247.886 C 187.608 247.978,188.100 248.546,188.695 249.148 C 189.290 249.751,189.778 250.316,189.779 250.405 C 189.780 250.494,190.137 250.939,190.572 251.395 C 191.007 251.851,193.026 254.023,195.059 256.221 C 197.092 258.420,200.066 261.520,201.669 263.111 C 204.274 265.696,204.941 266.667,204.113 266.667 C 203.995 266.667,203.706 266.832,203.470 267.034 C 203.234 267.235,202.955 267.396,202.850 267.390 C 202.745 267.384,202.505 267.533,202.318 267.720 C 202.130 267.908,201.067 268.680,199.954 269.435 C 195.997 272.124,193.303 273.990,192.911 274.314 C 192.692 274.495,191.652 275.222,190.600 275.929 C 189.547 276.635,188.650 277.304,188.605 277.415 C 188.560 277.525,188.378 277.616,188.200 277.616 C 188.021 277.616,187.839 277.703,187.794 277.810 C 187.749 277.917,186.892 278.544,185.888 279.204 C 184.884 279.863,182.989 281.172,181.676 282.112 C 180.363 283.051,179.110 283.929,178.891 284.063 C 178.673 284.197,178.378 284.397,178.237 284.508 C 177.926 284.752,173.268 287.950,170.015 290.153 C 168.711 291.035,167.507 291.887,167.338 292.047 C 167.170 292.206,166.101 292.962,164.964 293.727 C 163.826 294.492,161.472 296.108,159.732 297.319 C 157.993 298.529,155.885 299.982,155.049 300.547 C 153.232 301.774,153.224 301.824,154.387 304.903 C 154.860 306.154,155.584 308.108,155.997 309.246 C 156.668 311.098,157.324 312.829,157.885 314.234 C 157.992 314.501,158.276 315.268,158.515 315.937 C 159.059 317.453,160.367 321.023,161.146 323.114 C 162.485 326.713,163.469 329.390,163.873 330.535 C 164.455 332.187,164.963 333.500,165.493 334.719 C 165.737 335.280,165.937 335.850,165.937 335.984 C 165.937 336.208,166.495 337.678,168.427 342.549 C 168.819 343.536,169.174 344.524,169.217 344.744 C 169.259 344.963,169.587 345.853,169.945 346.720 C 170.304 347.587,170.633 348.516,170.676 348.783 C 170.720 349.051,171.147 350.201,171.626 351.338 C 172.105 352.476,172.499 353.591,172.502 353.818 C 172.512 354.800,173.021 354.352,174.204 352.320 C 174.901 351.123,175.625 350.016,175.813 349.860 C 176.002 349.703,176.156 349.425,176.156 349.240 C 176.156 349.056,176.252 348.905,176.370 348.905 C 176.487 348.905,176.715 348.588,176.875 348.201 C 177.036 347.813,177.352 347.293,177.579 347.045 C 177.805 346.797,178.581 345.663,179.304 344.526 C 180.026 343.388,180.691 342.403,180.781 342.336 C 180.871 342.269,181.639 341.119,182.487 339.781 C 183.335 338.443,184.174 337.203,184.350 337.026 C 184.527 336.850,184.672 336.611,184.672 336.496 C 184.672 336.382,184.814 336.143,184.988 335.966 C 185.400 335.548,187.591 332.402,187.591 332.229 C 187.591 332.156,187.789 331.884,188.031 331.624 C 188.273 331.365,189.119 330.193,189.911 329.019 C 190.703 327.846,191.475 326.776,191.626 326.642 C 191.778 326.509,192.657 325.321,193.579 324.003 C 196.360 320.028,199.633 315.617,200.105 315.207 C 200.259 315.073,201.575 313.376,203.029 311.436 C 204.482 309.495,205.851 307.743,206.070 307.543 C 206.288 307.342,207.414 305.973,208.570 304.501 C 209.727 303.029,210.959 301.496,211.308 301.095 C 212.747 299.441,213.751 298.252,216.446 295.012 C 218.830 292.147,220.262 290.510,223.358 287.108 C 225.091 285.203,226.277 284.000,226.277 284.147 C 226.277 284.810,227.710 285.148,228.150 284.588 C 228.479 284.170,228.675 284.087,228.870 284.282 C 229.249 284.662,229.934 285.217,232.456 287.190 C 233.674 288.143,234.849 289.116,235.065 289.352 C 235.281 289.588,235.527 289.781,235.610 289.781 C 235.770 289.781,236.534 290.376,237.195 291.015 C 237.413 291.226,238.577 292.153,239.781 293.077 C 240.985 294.000,242.026 294.820,242.092 294.900 C 242.159 294.980,243.911 296.404,245.985 298.065 C 248.060 299.725,249.816 301.166,249.889 301.265 C 249.961 301.365,250.618 300.674,251.349 299.729 C 253.527 296.910,255.021 295.038,255.442 294.598 C 256.160 293.850,256.448 293.455,256.448 293.218 C 256.448 293.090,256.540 292.948,256.653 292.903 C 256.808 292.842,260.007 288.939,262.102 286.253 C 262.207 286.119,262.618 285.627,263.016 285.158 C 264.024 283.972,263.950 283.686,262.252 282.204 C 261.430 281.487,260.253 280.425,259.637 279.844 C 259.020 279.263,258.141 278.496,257.683 278.141 C 257.225 277.785,256.565 277.220,256.216 276.886 C 255.867 276.551,254.113 275.018,252.318 273.479 C 250.523 271.940,248.700 270.342,248.267 269.927 C 247.833 269.512,247.027 268.801,246.474 268.346 C 245.921 267.891,245.076 267.160,244.595 266.722 L 243.722 265.925 244.306 265.272 C 244.628 264.913,245.164 264.397,245.499 264.125 C 245.833 263.852,247.029 262.753,248.156 261.681 C 250.611 259.347,251.287 258.721,253.412 256.813 C 254.306 256.010,255.453 254.970,255.960 254.501 C 256.467 254.033,257.340 253.266,257.900 252.798 C 258.460 252.330,259.169 251.727,259.475 251.460 C 262.030 249.225,263.164 248.217,263.657 247.738 C 263.974 247.431,264.234 247.245,264.234 247.324 C 264.234 247.403,264.505 247.196,264.836 246.865 C 265.168 246.533,265.852 245.953,266.357 245.576 C 269.135 243.501,269.312 243.191,268.741 241.395 C 268.024 239.141,266.851 234.642,266.671 233.455 C 266.569 232.786,266.193 230.815,265.836 229.075 C 265.479 227.336,265.084 224.872,264.959 223.601 C 264.833 222.330,264.570 219.791,264.374 217.960 C 262.408 199.625,265.660 176.919,272.870 158.637 C 273.895 156.040,276.520 150.173,277.008 149.392 C 277.300 148.923,277.990 147.609,278.540 146.472 C 279.090 145.335,280.120 143.447,280.828 142.276 C 283.446 137.954,284.282 136.611,284.535 136.322 C 284.979 135.814,285.248 135.445,286.358 133.818 C 287.675 131.890,288.429 130.955,291.951 126.886 C 292.761 125.949,293.946 124.577,294.583 123.837 C 295.599 122.657,301.568 117.237,303.494 115.745 C 303.876 115.449,304.453 114.983,304.775 114.709 L 305.360 114.212 304.994 103.882 C 304.792 98.201,304.626 93.470,304.625 93.370 C 304.618 92.798,297.154 94.206,287.956 96.515 C 284.619 97.353,284.627 97.351,283.942 97.491 C 283.607 97.560,282.319 97.933,281.080 98.321 C 279.840 98.709,278.661 99.027,278.459 99.027 C 278.114 99.027,276.402 99.541,271.116 101.230 C 269.883 101.624,268.658 101.946,268.393 101.946 C 268.129 101.946,267.844 102.056,267.762 102.190 C 267.679 102.324,267.366 102.433,267.066 102.433 C 266.766 102.433,266.417 102.524,266.290 102.634 C 266.162 102.745,265.237 103.091,264.234 103.404 C 263.230 103.716,260.657 104.568,258.516 105.295 C 256.375 106.023,254.294 106.702,253.893 106.803 C 253.491 106.904,252.482 107.276,251.650 107.630 C 250.817 107.983,249.967 108.273,249.761 108.273 C 249.554 108.273,249.195 108.377,248.963 108.504 C 247.103 109.523,243.796 110.385,243.796 109.851 C 243.796 109.522,243.701 109.522,242.914 109.851 C 241.548 110.422,241.520 110.390,240.802 107.423 C 238.910 99.610,239.199 84.479,241.374 77.477 C 241.501 77.066,241.606 76.494,241.606 76.207 C 241.606 75.730,242.558 71.961,243.429 68.991 C 243.876 67.464,244.221 67.416,240.146 69.451 M325.049 125.440 C 324.889 125.633,324.654 125.791,324.527 125.791 C 324.400 125.791,324.157 125.928,323.987 126.095 C 323.817 126.262,323.311 126.673,322.863 127.007 C 317.406 131.082,312.868 135.137,309.002 139.394 C 308.266 140.204,307.190 141.379,306.610 142.005 C 306.030 142.631,304.723 144.248,303.706 145.598 C 302.688 146.949,301.785 148.108,301.698 148.175 C 301.429 148.383,297.410 154.575,296.961 155.474 C 296.727 155.943,296.395 156.490,296.224 156.691 C 295.593 157.430,291.283 166.248,290.349 168.709 C 288.715 173.015,286.725 179.044,286.125 181.509 C 284.727 187.248,283.671 192.954,282.994 198.418 C 282.138 205.332,281.852 220.313,282.439 227.494 C 282.598 229.434,282.837 232.584,282.970 234.494 C 283.103 236.403,283.432 239.532,283.701 241.447 C 283.970 243.361,284.236 245.527,284.292 246.260 C 284.348 246.993,284.719 249.393,285.116 251.594 C 285.513 253.795,285.910 256.185,285.997 256.905 C 286.085 257.625,286.413 259.322,286.727 260.676 C 287.040 262.031,287.373 263.686,287.467 264.355 C 287.560 265.024,288.009 267.159,288.464 269.100 C 288.919 271.040,289.628 274.106,290.039 275.912 C 290.955 279.929,292.066 284.421,292.748 286.861 C 293.028 287.865,293.450 289.562,293.686 290.633 C 293.922 291.703,294.341 293.291,294.617 294.161 C 294.893 295.030,295.172 296.055,295.237 296.437 C 295.301 296.820,295.680 298.133,296.079 299.357 C 296.477 300.580,296.872 301.965,296.957 302.433 C 297.042 302.901,297.206 303.558,297.324 303.893 C 297.607 304.704,299.667 311.738,300.280 313.990 C 300.426 314.526,300.703 315.401,300.897 315.937 L 301.249 316.910 299.409 315.092 C 297.392 313.099,297.462 313.036,298.465 315.937 C 298.866 317.100,294.782 313.094,289.658 307.299 C 288.060 305.493,286.686 303.960,286.603 303.893 C 286.521 303.826,285.794 303.005,284.988 302.068 C 284.182 301.131,282.236 299.057,280.663 297.459 L 277.803 294.553 277.217 295.269 C 276.895 295.663,275.932 296.971,275.077 298.175 C 274.221 299.380,273.102 300.821,272.588 301.378 C 272.075 301.935,270.724 303.401,269.586 304.637 C 265.427 309.155,261.305 314.742,261.318 315.844 C 261.320 316.029,262.105 316.727,263.063 317.397 C 264.020 318.066,264.977 318.786,265.188 318.997 C 265.399 319.208,266.514 320.057,267.666 320.885 C 268.817 321.713,269.956 322.608,270.197 322.874 C 270.438 323.140,270.782 323.358,270.962 323.358 C 271.142 323.358,271.290 323.448,271.290 323.559 C 271.290 323.669,272.357 324.539,273.662 325.491 C 274.967 326.443,276.276 327.448,276.571 327.723 C 276.867 327.999,277.169 328.224,277.243 328.224 C 277.316 328.224,277.720 328.552,278.140 328.954 C 278.561 329.355,278.990 329.684,279.094 329.684 C 279.199 329.684,279.429 329.828,279.605 330.005 C 279.782 330.182,280.858 331.070,281.995 331.979 C 284.751 334.181,286.005 335.219,287.232 336.314 C 287.794 336.816,288.354 337.226,288.477 337.226 C 288.600 337.226,288.858 337.445,289.051 337.713 C 289.244 337.981,289.533 338.200,289.693 338.200 C 289.853 338.200,290.020 338.307,290.065 338.438 C 290.109 338.569,291.092 339.472,292.248 340.445 C 293.404 341.418,295.156 342.908,296.141 343.757 C 297.126 344.605,298.354 345.646,298.869 346.068 C 299.385 346.491,300.320 347.330,300.948 347.932 C 301.575 348.534,302.760 349.629,303.581 350.365 C 307.650 354.015,315.627 362.097,318.951 365.937 C 319.935 367.074,321.302 368.651,321.988 369.441 C 322.675 370.231,323.469 371.191,323.753 371.576 L 324.270 372.275 324.553 370.383 C 324.709 369.343,324.938 367.451,325.063 366.180 C 325.187 364.909,325.556 362.391,325.883 360.584 C 326.211 358.777,326.553 356.752,326.644 356.083 C 326.735 355.414,327.064 353.717,327.374 352.311 C 327.685 350.906,328.002 349.282,328.078 348.701 C 328.208 347.704,329.060 344.141,330.210 339.781 C 331.883 333.437,332.458 331.470,333.727 327.737 C 334.068 326.734,334.489 325.420,334.663 324.818 C 334.837 324.215,335.437 322.464,335.995 320.925 C 336.554 319.386,337.213 317.524,337.459 316.788 C 337.705 316.052,338.188 314.815,338.531 314.039 C 338.875 313.263,339.261 312.278,339.389 311.850 C 339.516 311.421,340.132 309.866,340.756 308.394 C 341.380 306.922,342.106 305.170,342.369 304.501 C 342.631 303.832,343.005 302.929,343.199 302.494 C 343.393 302.059,343.725 301.293,343.937 300.791 C 344.148 300.289,344.641 299.139,345.032 298.236 C 345.422 297.333,346.084 295.800,346.501 294.830 C 346.918 293.859,347.482 292.573,347.753 291.971 C 349.101 288.981,350.122 286.498,350.122 286.209 C 350.122 286.033,350.209 285.888,350.316 285.888 C 350.423 285.888,350.658 285.477,350.837 284.976 C 351.017 284.474,351.629 283.078,352.198 281.873 C 355.562 274.746,355.550 274.794,354.197 274.458 C 352.543 274.048,351.607 273.798,349.148 273.109 C 347.877 272.753,346.454 272.374,345.985 272.268 C 345.517 272.161,344.039 271.721,342.701 271.289 C 341.363 270.857,339.994 270.452,339.659 270.389 C 339.325 270.326,338.394 270.078,337.591 269.839 C 336.788 269.599,335.693 269.285,335.158 269.140 C 334.623 268.996,333.461 268.658,332.576 268.389 C 331.071 267.930,326.041 266.532,324.924 266.262 C 324.463 266.151,324.389 266.329,324.024 268.411 C 323.806 269.660,323.393 271.995,323.107 273.601 C 322.821 275.207,322.385 277.835,322.139 279.440 C 321.892 281.046,321.412 283.948,321.073 285.888 C 320.733 287.828,320.119 291.442,319.708 293.917 C 319.298 296.393,318.637 300.170,318.240 302.312 C 317.843 304.453,317.518 306.408,317.518 306.657 C 317.518 306.905,317.339 308.087,317.120 309.285 L 316.722 311.461 316.274 310.461 C 316.028 309.910,315.698 309.032,315.541 308.509 C 315.153 307.214,314.963 307.446,314.607 309.655 L 314.303 311.538 313.719 310.151 C 313.397 309.388,312.977 308.188,312.786 307.484 C 312.595 306.780,312.202 305.438,311.913 304.501 C 311.624 303.564,311.278 302.305,311.144 301.703 C 311.010 301.101,310.584 299.185,310.198 297.445 C 309.811 295.706,309.439 293.844,309.370 293.309 C 309.301 292.774,308.970 290.518,308.635 288.296 C 306.784 276.009,306.560 251.807,308.154 236.253 C 308.938 228.607,310.255 219.247,311.217 214.477 C 312.106 210.069,313.427 204.275,313.769 203.285 C 313.954 202.749,314.106 202.157,314.108 201.969 C 314.117 201.107,316.625 193.562,317.063 193.080 C 317.190 192.940,317.553 193.058,317.993 193.384 C 318.831 194.003,319.221 194.061,319.221 193.567 C 319.221 192.943,319.737 192.874,320.451 193.402 C 320.835 193.685,321.206 193.917,321.276 193.917 C 321.346 193.917,322.082 194.246,322.910 194.647 C 323.739 195.049,324.608 195.377,324.841 195.377 C 325.074 195.377,326.485 195.988,327.976 196.734 L 330.687 198.092 330.518 198.863 C 330.426 199.288,329.972 200.620,329.510 201.825 C 327.147 207.985,326.930 208.965,326.907 213.599 L 326.886 217.830 331.995 219.601 C 334.805 220.575,338.364 221.831,339.903 222.392 C 341.442 222.953,343.193 223.577,343.796 223.779 C 345.126 224.225,348.219 225.365,350.365 226.201 C 351.235 226.540,352.439 226.960,353.041 227.136 C 354.548 227.574,357.229 228.550,357.631 228.805 C 358.010 229.047,358.385 228.598,358.390 227.895 C 358.394 227.487,358.731 226.148,360.115 221.046 C 360.868 218.270,361.960 214.785,362.381 213.816 C 362.597 213.318,362.774 212.689,362.774 212.417 C 362.774 212.145,362.883 211.922,363.017 211.922 C 363.151 211.922,363.260 211.735,363.260 211.506 C 363.260 211.021,364.268 207.920,365.221 205.474 C 366.642 201.828,367.446 199.595,367.673 198.671 C 367.802 198.141,367.995 197.594,368.099 197.455 C 368.204 197.316,368.535 196.545,368.834 195.742 C 369.469 194.034,370.416 191.551,371.663 188.321 C 372.153 187.050,372.933 185.024,373.395 183.820 C 374.830 180.082,375.616 178.086,376.269 176.521 C 376.492 175.985,376.766 175.328,376.876 175.061 C 376.987 174.793,377.269 174.027,377.502 173.358 C 377.736 172.689,378.007 172.032,378.105 171.898 C 378.202 171.764,378.415 171.217,378.578 170.681 C 378.741 170.146,379.091 169.228,379.356 168.642 C 379.851 167.547,379.728 166.650,378.974 165.855 C 378.659 165.523,376.886 161.765,376.884 161.425 C 376.883 161.297,376.741 160.918,376.567 160.584 C 376.240 159.955,374.449 154.475,373.385 150.852 C 373.051 149.714,372.547 147.634,372.265 146.229 C 371.983 144.824,371.645 143.270,371.515 142.776 L 371.279 141.878 369.325 143.141 C 368.251 143.836,367.193 144.513,366.975 144.647 C 366.757 144.781,365.618 145.520,364.444 146.290 C 363.271 147.059,362.241 147.689,362.156 147.689 C 362.071 147.689,361.546 148.003,360.989 148.387 C 360.432 148.771,359.592 149.313,359.124 149.591 C 358.656 149.869,357.583 150.513,356.741 151.022 C 353.194 153.163,350.586 154.675,346.350 157.048 C 345.681 157.423,345.024 157.810,344.891 157.908 C 344.646 158.087,343.052 158.984,341.241 159.961 C 340.706 160.250,339.994 160.657,339.659 160.866 C 337.031 162.504,334.745 163.525,335.212 162.851 C 335.473 162.474,335.778 162.008,335.890 161.816 C 336.003 161.624,335.243 161.934,334.201 162.506 L 332.309 163.544 333.075 162.490 C 334.951 159.909,335.765 158.834,337.567 156.561 C 338.625 155.227,339.665 153.969,339.879 153.764 C 340.365 153.297,341.564 151.840,344.774 147.810 C 347.003 145.013,348.179 143.571,349.239 142.336 C 350.252 141.155,352.555 138.021,352.555 137.823 C 352.555 137.558,351.781 137.188,349.462 136.347 C 348.581 136.028,347.531 135.602,347.129 135.401 C 346.726 135.201,346.253 135.036,346.076 135.036 C 345.900 135.036,345.287 134.826,344.715 134.569 C 341.340 133.054,340.662 132.761,339.781 132.435 C 339.246 132.237,338.151 131.770,337.348 131.397 C 336.545 131.025,335.341 130.471,334.672 130.166 C 330.667 128.343,327.590 126.714,326.963 126.087 C 326.800 125.924,326.524 125.791,326.350 125.791 C 326.176 125.791,326.034 125.693,326.034 125.573 C 326.034 125.177,325.345 125.084,325.049 125.440 M248.783 143.796 C 248.626 144.293,248.998 144.479,249.270 144.039 C 249.353 143.905,249.666 143.796,249.966 143.796 C 250.266 143.796,250.641 143.666,250.799 143.508 C 251.690 142.616,251.331 143.756,249.015 149.157 C 247.712 152.198,244.720 161.091,244.066 163.869 C 242.566 170.241,242.473 179.659,243.810 189.881 C 244.072 191.876,244.254 193.540,244.217 193.577 C 244.051 193.743,242.305 194.891,242.218 194.891 C 242.165 194.891,241.102 195.526,239.857 196.302 C 238.611 197.078,236.907 198.089,236.071 198.548 C 235.234 199.007,234.550 199.467,234.550 199.570 C 234.550 199.672,234.435 199.757,234.295 199.757 C 234.155 199.757,233.441 200.140,232.709 200.608 C 231.976 201.077,231.292 201.460,231.188 201.460 C 231.084 201.460,230.785 201.626,230.524 201.829 C 228.578 203.338,226.887 204.098,226.655 203.568 C 226.529 203.278,226.400 203.004,226.370 202.959 C 226.340 202.914,225.901 203.158,225.395 203.502 C 224.294 204.250,224.097 204.071,224.091 202.323 C 224.089 201.660,223.766 198.540,223.374 195.389 C 222.981 192.238,222.536 188.510,222.384 187.105 C 221.517 179.067,219.659 170.215,217.015 161.524 C 216.623 160.235,216.302 159.079,216.302 158.955 C 216.302 158.725,217.962 157.908,218.430 157.908 C 218.846 157.908,227.944 153.632,228.224 153.305 C 228.291 153.227,229.714 152.480,231.387 151.646 C 233.060 150.812,235.857 149.388,237.603 148.483 C 239.350 147.578,241.704 146.408,242.835 145.884 C 243.965 145.360,245.431 144.676,246.092 144.363 C 246.752 144.051,247.485 143.796,247.720 143.796 C 247.954 143.796,248.214 143.686,248.297 143.552 C 248.569 143.112,248.941 143.299,248.783 143.796 " stroke="none" fill="#000000" fill-rule="evenodd"></path></g></svg>