<?xml version="1.0" encoding="UTF-8"?>
<!DOCTYPE svg PUBLIC "-//W3C//DTD SVG 1.1//EN" "http://www.w3.org/Graphics/SVG/1.1/DTD/svg11.dtd">
<!-- Creator: CorelDRAW X7 -->
<svg xmlns="http://www.w3.org/2000/svg" xml:space="preserve" width="420mm" height="297mm" version="1.1" shape-rendering="geometricPrecision" text-rendering="geometricPrecision" image-rendering="optimizeQuality" fill-rule="evenodd" clip-rule="evenodd"
viewBox="0 0 42000 29700"
 xmlns:xlink="http://www.w3.org/1999/xlink">
 <g id="Layer_x0020_1">
  <metadata id="CorelCorpID_0Corel-Layer"/>
  <path fill="#2B2A29" d="M11853 10751c-640,-867 -2282,-5728 -2386,-6485 669,-234 3106,-876 3699,-1076 -28,856 -117,1319 -41,1915 2082,-198 4834,-2037 5320,-2907 612,411 1005,673 1617,1084 214,802 324,1751 680,2774 -600,416 -1880,870 -2481,1286 -245,-759 -63,-395 -422,-1081 -1219,943 -2838,1622 -4165,1932 175,704 152,830 490,1574 572,-154 1271,-347 2407,-1561 202,91 404,183 606,275 -99,517 167,1544 537,2566l-1426 1216c-300,-781 -376,-914 -448,-1248 -319,233 -637,466 -956,698 224,1682 2924,5842 4774,7222 -208,264 -1640,974 -1848,1237 -373,-139 -679,-271 -954,-392l-5 16c-645,-232 -1331,-443 -2020,-614 -38,-3 -76,-5 -116,-8l-12 -24c-1389,-334 -2779,-502 -3859,-351 346,166 3028,1321 3374,1487 -141,313 -1150,1986 -1292,2298 -2638,-2073 -4014,-3153 -6922,-4235 2134,-649 4668,-1991 6139,-3201 613,584 249,543 861,1126 -310,267 -1937,1026 -2248,1292 1906,-88 3983,-147 5965,83 -2456,-2693 -3300,-3945 -3736,-4480 -171,141 -1482,1090 -1653,1231 -539,-547 -1630,-2503 -1678,-3099 99,98 1592,-374 2199,-550zm12800 -8007c-863,434 -1726,868 -2589,1302 -24,921 271,1846 948,2773l66 6c-1609,634 -3121,1305 -4176,1835 1357,4544 3114,7707 3531,7982 490,-367 1899,-1285 2389,-1652 148,322 296,643 443,965 -631,493 -2296,1624 -2927,2116 -1140,-1012 -3206,-4880 -3491,-6224 -570,418 -997,966 -1568,1384 603,1115 1622,3331 4061,5640 -1724,1195 -2451,1699 -4175,2894 544,1465 1088,2930 1632,4395 1314,-2097 2770,-4071 4421,-5874l1860 1490 1186 -1475 -1656 -1447c662,-642 1354,-1258 2078,-1846 -1086,-3478 -124,-8119 2923,-10435 -16,-568 -33,-1137 -50,-1706 -1324,173 -3211,745 -5104,1436 -307,-1048 -204,-2248 198,-3559zm-2256 7429c474,1578 422,1716 668,3723 268,-160 1187,-712 1455,-871 -235,-1899 -188,-2247 597,-4132 -584,170 -2136,1110 -2720,1280zm8607 8685c351,64 2290,659 2640,723 -1425,3179 -2166,4837 -2524,8038 -1242,-1685 -3647,-3551 -5236,-4730 434,-763 951,-1035 1385,-1799 346,246 1520,1694 1866,1939 -1579,-5278 -3274,-11957 2039,-15615 202,266 1301,710 2257,1081 -523,709 -1405,1672 -1702,2148 1345,-717 2435,-1385 3204,-1905 53,419 356,1642 693,2152 -356,934 -1611,3970 -1747,4997 -318,-78 -2389,-864 -2707,-943 -2,-811 112,-872 348,-1572 -512,-319 -448,-147 -960,-466 -808,2065 -1260,7109 -205,9725 81,-390 569,-3382 649,-3773z"/>
 </g>
</svg>
