<svg id="svg" xmlns="http://www.w3.org/2000/svg" xmlns:xlink="http://www.w3.org/1999/xlink" width="400" height="400" viewBox="0, 0, 400,400"><g id="svgg"><path id="path0" d="M166.530 63.321 L 165.815 64.112 166.606 63.397 C 167.041 63.004,167.397 62.648,167.397 62.607 C 167.397 62.419,167.196 62.584,166.530 63.321 M164.469 65.633 L 163.139 67.032 164.538 65.702 C 165.307 64.970,165.937 64.341,165.937 64.303 C 165.937 64.122,165.704 64.333,164.469 65.633 M162.150 67.701 L 161.436 68.491 162.226 67.777 C 162.661 67.384,163.017 67.028,163.017 66.986 C 163.017 66.798,162.816 66.964,162.150 67.701 M96.837 74.088 C 96.369 74.268,96.150 74.416,96.350 74.416 C 96.551 74.416,97.099 74.268,97.567 74.088 C 98.035 73.907,98.254 73.760,98.054 73.760 C 97.853 73.760,97.305 73.907,96.837 74.088 M227.676 75.565 C 226.733 76.077,226.840 76.253,227.798 75.766 C 228.715 75.300,228.878 75.179,228.569 75.192 C 228.446 75.198,228.044 75.365,227.676 75.565 M91.241 75.669 C 90.752 75.826,90.728 75.865,91.119 75.871 C 91.387 75.875,91.825 75.784,92.092 75.669 C 92.712 75.403,92.073 75.403,91.241 75.669 M147.383 78.568 C 146.383 79.209,146.244 79.435,147.126 78.986 C 147.552 78.770,147.969 78.482,148.052 78.347 C 148.248 78.032,148.189 78.051,147.383 78.568 M79.927 78.832 C 79.307 79.099,79.947 79.099,80.779 78.832 C 81.268 78.676,81.291 78.636,80.900 78.630 C 80.633 78.626,80.195 78.717,79.927 78.832 M144.100 80.533 C 143.285 81.030,142.976 81.465,143.735 81.048 C 144.300 80.738,145.166 80.066,145.012 80.057 C 144.945 80.054,144.535 80.267,144.100 80.533 M215.085 82.017 C 214.681 82.347,214.640 82.430,214.964 82.263 C 215.757 81.853,216.197 81.516,215.937 81.518 C 215.803 81.519,215.420 81.743,215.085 82.017 M63.747 83.455 C 63.258 83.612,63.234 83.651,63.625 83.657 C 63.893 83.661,64.331 83.570,64.599 83.455 C 65.219 83.189,64.579 83.189,63.747 83.455 M58.922 89.294 C 58.935 89.927,59.318 90.965,59.326 90.389 C 59.330 90.122,59.239 89.684,59.124 89.416 C 58.996 89.118,58.918 89.071,58.922 89.294 M125.669 89.668 C 125.061 89.961,125.040 89.995,125.547 89.871 C 126.237 89.702,127.012 89.307,126.642 89.313 C 126.509 89.315,126.071 89.475,125.669 89.668 M116.302 92.944 C 115.813 93.101,115.789 93.140,116.180 93.146 C 116.448 93.150,116.886 93.059,117.153 92.944 C 117.773 92.678,117.134 92.678,116.302 92.944 M214.992 94.404 C 215.071 95.006,215.225 95.594,215.334 95.711 C 215.444 95.827,215.429 95.444,215.302 94.859 C 214.971 93.342,214.824 93.126,214.992 94.404 M296.715 94.334 C 296.448 94.398,296.133 94.541,296.017 94.652 C 295.831 94.828,297.527 94.546,298.175 94.294 C 298.520 94.160,297.301 94.193,296.715 94.334 M277.372 99.270 C 276.883 99.427,276.859 99.466,277.251 99.472 C 277.518 99.476,277.956 99.385,278.224 99.270 C 278.844 99.004,278.204 99.004,277.372 99.270 M272.384 100.730 C 271.764 100.996,272.404 100.996,273.236 100.730 C 273.725 100.573,273.749 100.534,273.358 100.528 C 273.090 100.524,272.652 100.615,272.384 100.730 M252.905 107.191 C 252.441 107.563,252.441 107.566,252.920 107.346 C 253.187 107.222,253.571 107.061,253.771 106.986 C 254.087 106.869,254.085 106.848,253.757 106.832 C 253.548 106.821,253.165 106.983,252.905 107.191 M221.168 110.069 C 221.168 110.330,221.892 111.679,222.032 111.679 C 222.099 111.679,221.973 111.323,221.751 110.888 C 221.300 110.000,221.168 109.815,221.168 110.069 M222.606 112.855 C 222.737 113.100,223.036 113.456,223.269 113.645 C 223.532 113.859,223.473 113.689,223.115 113.200 C 222.476 112.327,222.236 112.164,222.606 112.855 M224.300 115.207 C 224.431 115.474,224.717 115.912,224.935 116.180 L 225.331 116.667 225.092 116.180 C 224.961 115.912,224.675 115.474,224.457 115.207 L 224.061 114.720 224.300 115.207 M321.776 127.880 L 321.046 128.507 321.837 127.984 C 322.272 127.696,322.628 127.413,322.628 127.356 C 322.628 127.174,322.525 127.237,321.776 127.880 M316.408 132.178 L 315.693 132.968 316.484 132.254 C 317.221 131.588,317.387 131.387,317.199 131.387 C 317.157 131.387,316.801 131.743,316.408 132.178 M311.827 136.381 C 311.038 137.120,310.443 137.774,310.503 137.834 C 310.563 137.894,311.259 137.289,312.050 136.490 C 313.856 134.665,313.724 134.601,311.827 136.381 M369.378 143.070 C 367.935 144.018,367.783 144.237,369.053 143.538 C 369.629 143.220,370.217 142.820,370.360 142.648 C 370.717 142.218,370.596 142.270,369.378 143.070 M305.450 143.370 C 304.384 144.599,304.067 145.012,304.191 145.012 C 304.262 145.012,304.725 144.519,305.218 143.917 C 306.132 142.802,306.313 142.374,305.450 143.370 M361.192 148.303 L 360.462 148.915 361.375 148.399 C 361.877 148.116,362.287 147.840,362.287 147.786 C 362.287 147.541,361.862 147.742,361.192 148.303 M359.063 149.531 C 358.154 150.024,358.209 150.230,359.124 149.757 C 359.526 149.549,359.854 149.327,359.854 149.264 C 359.854 149.107,359.828 149.116,359.063 149.531 M348.601 155.734 C 348.099 155.999,347.689 156.270,347.689 156.337 C 347.689 156.403,348.127 156.234,348.662 155.961 C 349.197 155.688,349.635 155.412,349.635 155.348 C 349.635 155.189,349.633 155.189,348.601 155.734 M345.679 157.400 C 344.619 158.080,344.568 158.235,345.560 157.764 C 346.061 157.526,346.472 157.242,346.472 157.133 C 346.472 156.886,346.490 156.880,345.679 157.400 M245.008 160.230 C 244.698 161.044,244.425 162.198,244.578 162.044 C 244.765 161.855,245.483 159.611,245.356 159.611 C 245.294 159.611,245.138 159.889,245.008 160.230 M335.093 162.713 C 334.477 163.603,334.167 164.238,334.617 163.690 C 334.807 163.458,335.034 163.321,335.121 163.386 C 335.209 163.451,335.225 163.430,335.157 163.341 C 335.090 163.251,335.202 162.922,335.406 162.611 C 335.930 161.812,335.655 161.902,335.093 162.713 M60.584 173.830 C 60.584 174.157,60.674 174.479,60.783 174.547 C 60.893 174.615,60.935 174.347,60.877 173.953 C 60.750 173.084,60.584 173.014,60.584 173.830 M243.127 182.847 C 243.130 183.382,243.180 183.572,243.238 183.270 C 243.296 182.967,243.294 182.529,243.233 182.296 C 243.172 182.064,243.124 182.311,243.127 182.847 M189.677 182.968 C 189.767 183.303,189.941 183.741,190.065 183.942 C 190.222 184.195,190.241 184.121,190.128 183.698 C 190.039 183.364,189.864 182.926,189.740 182.725 C 189.583 182.471,189.564 182.546,189.677 182.968 M166.788 185.326 C 166.119 185.941,165.900 186.221,166.302 185.947 C 166.985 185.481,168.335 184.172,168.108 184.196 C 168.051 184.202,167.457 184.710,166.788 185.326 M243.453 186.616 C 243.519 187.753,243.672 188.782,243.793 188.902 C 243.923 189.032,243.965 188.934,243.897 188.660 C 243.834 188.407,243.682 187.378,243.558 186.375 L 243.332 184.550 243.453 186.616 M284.550 188.078 C 284.456 188.631,284.431 189.135,284.493 189.197 C 284.556 189.260,284.680 188.854,284.769 188.297 C 284.858 187.739,284.883 187.235,284.825 187.177 C 284.767 187.119,284.643 187.525,284.550 188.078 M319.114 193.096 C 318.904 193.933,319.035 194.029,319.383 193.291 C 319.537 192.967,319.575 192.647,319.468 192.581 C 319.361 192.515,319.202 192.747,319.114 193.096 M194.421 194.526 C 194.421 194.659,194.578 195.043,194.769 195.377 C 194.960 195.712,195.117 195.876,195.117 195.742 C 195.117 195.608,194.960 195.225,194.769 194.891 C 194.578 194.556,194.421 194.392,194.421 194.526 M241.363 195.397 L 240.754 195.893 241.545 195.507 C 241.980 195.295,242.336 195.069,242.336 195.006 C 242.336 194.764,241.948 194.920,241.363 195.397 M71.533 197.324 C 71.806 197.859,72.084 198.297,72.151 198.297 C 72.218 198.297,72.049 197.859,71.776 197.324 C 71.503 196.788,71.225 196.350,71.158 196.350 C 71.091 196.350,71.260 196.788,71.533 197.324 M327.514 196.442 C 327.763 196.667,329.684 197.564,329.684 197.455 C 329.684 197.317,327.847 196.350,327.585 196.350 C 327.490 196.350,327.458 196.392,327.514 196.442 M103.269 197.890 C 103.644 198.382,104.000 198.783,104.060 198.783 C 104.229 198.783,103.176 197.360,102.864 197.168 C 102.712 197.074,102.895 197.399,103.269 197.890 M283.137 197.410 C 283.063 197.603,282.945 198.565,282.873 199.549 L 282.744 201.338 283.064 199.270 C 283.380 197.229,283.400 196.725,283.137 197.410 M195.874 197.993 C 195.889 198.263,196.815 199.910,196.827 199.688 C 196.843 199.388,196.147 197.810,195.998 197.810 C 195.924 197.810,195.868 197.892,195.874 197.993 M330.367 198.020 C 330.570 198.148,330.634 198.477,330.544 198.928 C 330.409 199.602,330.415 199.607,330.660 199.043 C 330.954 198.366,330.818 197.808,330.360 197.814 C 330.112 197.817,330.113 197.859,330.367 198.020 M236.192 198.436 C 235.283 198.929,235.338 199.135,236.253 198.662 C 236.655 198.454,236.983 198.232,236.983 198.169 C 236.983 198.012,236.957 198.021,236.192 198.436 M105.761 201.099 C 106.262 201.699,106.711 202.190,106.758 202.190 C 106.956 202.190,105.448 200.248,105.162 200.134 C 104.990 200.065,105.260 200.500,105.761 201.099 M197.706 201.946 C 197.796 202.281,197.971 202.719,198.095 202.920 C 198.251 203.173,198.270 203.099,198.157 202.676 C 198.068 202.342,197.893 201.904,197.769 201.703 C 197.612 201.450,197.593 201.524,197.706 201.946 M74.665 202.311 C 74.796 202.579,75.082 203.017,75.300 203.285 L 75.696 203.771 75.457 203.285 C 75.326 203.017,75.040 202.579,74.822 202.311 L 74.426 201.825 74.665 202.311 M228.589 203.035 C 228.054 203.365,227.691 203.638,227.784 203.642 C 227.995 203.652,229.684 202.664,229.684 202.531 C 229.684 202.372,229.609 202.407,228.589 203.035 M328.766 203.711 C 328.351 204.856,328.409 205.166,328.848 204.155 C 329.047 203.696,329.177 203.223,329.137 203.103 C 329.097 202.983,328.930 203.257,328.766 203.711 M108.136 204.216 C 108.510 204.708,108.866 205.109,108.926 205.109 C 109.095 205.109,108.042 203.686,107.730 203.494 C 107.579 203.400,107.761 203.725,108.136 204.216 M159.586 205.718 C 159.996 206.511,160.333 206.951,160.331 206.691 C 160.331 206.557,160.106 206.174,159.832 205.839 C 159.502 205.435,159.419 205.395,159.586 205.718 M78.102 207.299 C 78.388 207.701,78.677 208.029,78.744 208.029 C 78.811 208.029,78.631 207.701,78.345 207.299 C 78.060 206.898,77.771 206.569,77.704 206.569 C 77.637 206.569,77.816 206.898,78.102 207.299 M110.434 207.238 C 110.709 207.744,111.642 208.759,111.830 208.759 C 111.903 208.759,111.616 208.321,111.192 207.786 C 110.383 206.765,110.041 206.518,110.434 207.238 M327.402 207.981 C 327.160 208.372,326.726 211.399,326.832 211.957 C 326.912 212.377,326.951 212.302,326.979 211.679 C 327.000 211.210,327.161 210.143,327.336 209.307 C 327.644 207.838,327.657 207.568,327.402 207.981 M200.487 208.122 C 200.487 208.383,201.211 209.732,201.351 209.732 C 201.418 209.732,201.291 209.377,201.070 208.942 C 200.619 208.054,200.487 207.868,200.487 208.122 M79.318 208.942 C 79.636 209.377,79.935 209.732,79.981 209.732 C 80.166 209.732,79.563 208.820,79.164 208.496 C 78.901 208.282,78.960 208.452,79.318 208.942 M112.404 209.725 C 112.687 210.122,113.042 210.524,113.194 210.618 C 113.346 210.712,113.164 210.387,112.789 209.896 C 111.976 208.829,111.669 208.694,112.404 209.725 M114.112 211.922 C 114.536 212.457,114.937 212.895,115.004 212.895 C 115.071 212.895,114.779 212.457,114.355 211.922 C 113.931 211.387,113.530 210.949,113.463 210.949 C 113.396 210.949,113.688 211.387,114.112 211.922 M162.783 211.557 C 162.784 211.691,163.008 212.074,163.282 212.409 C 163.613 212.813,163.695 212.854,163.528 212.530 C 163.118 211.737,162.781 211.297,162.783 211.557 M202.190 211.529 C 202.190 211.790,202.914 213.139,203.054 213.139 C 203.121 213.139,202.995 212.783,202.773 212.348 C 202.322 211.460,202.190 211.275,202.190 211.529 M116.304 214.529 C 116.305 214.634,116.771 215.218,117.338 215.827 C 118.459 217.029,118.323 216.730,117.080 215.259 C 116.652 214.753,116.303 214.424,116.304 214.529 M203.893 215.235 C 203.893 215.369,204.054 215.691,204.250 215.951 C 204.447 216.211,204.607 216.314,204.607 216.180 C 204.607 216.046,204.447 215.724,204.250 215.464 C 204.054 215.205,203.893 215.102,203.893 215.235 M165.699 216.727 C 165.702 216.828,165.927 217.184,166.200 217.518 L 166.696 218.127 166.310 217.336 C 165.943 216.584,165.687 216.329,165.699 216.727 M205.353 217.855 C 205.353 218.116,206.077 219.465,206.217 219.465 C 206.284 219.465,206.158 219.109,205.936 218.674 C 205.485 217.786,205.353 217.601,205.353 217.855 M328.954 218.373 C 328.954 218.554,330.720 219.239,330.851 219.109 C 330.916 219.043,330.817 218.935,330.631 218.869 C 330.445 218.803,329.991 218.639,329.623 218.505 C 329.255 218.370,328.954 218.311,328.954 218.373 M120.192 219.461 C 120.614 219.995,121.087 220.510,121.242 220.606 C 121.398 220.702,121.103 220.265,120.587 219.636 C 120.071 219.006,119.599 218.491,119.537 218.491 C 119.475 218.491,119.769 218.928,120.192 219.461 M167.748 220.118 C 167.954 220.545,168.244 220.969,168.392 221.060 C 168.719 221.262,168.367 220.569,167.768 219.830 C 167.401 219.378,167.400 219.399,167.748 220.118 M333.820 220.092 C 333.820 220.256,335.084 220.715,335.204 220.595 C 335.259 220.539,334.971 220.378,334.562 220.235 C 334.154 220.093,333.820 220.028,333.820 220.092 M206.814 220.823 C 206.815 221.123,207.741 222.628,207.924 222.628 C 208.004 222.628,207.822 222.217,207.520 221.715 C 206.839 220.582,206.812 220.549,206.814 220.823 M88.929 221.803 L 87.956 222.674 88.990 221.900 C 89.880 221.235,90.201 220.914,89.964 220.928 C 89.930 220.930,89.465 221.324,88.929 221.803 M122.004 221.735 C 122.379 222.226,122.735 222.628,122.795 222.628 C 122.964 222.628,121.911 221.204,121.599 221.012 C 121.447 220.918,121.629 221.243,122.004 221.735 M338.078 221.785 C 338.479 221.969,338.972 222.116,339.173 222.112 C 339.373 222.107,339.155 221.957,338.686 221.776 C 337.575 221.348,337.138 221.355,338.078 221.785 M249.652 221.776 C 249.652 221.910,249.809 222.293,250.000 222.628 C 250.191 222.962,250.348 223.127,250.348 222.993 C 250.348 222.859,250.191 222.476,250.000 222.141 C 249.809 221.807,249.652 221.642,249.652 221.776 M169.465 222.871 C 169.672 223.273,169.897 223.601,169.964 223.601 C 170.031 223.601,169.916 223.273,169.708 222.871 C 169.500 222.470,169.276 222.141,169.209 222.141 C 169.142 222.141,169.257 222.470,169.465 222.871 M86.757 223.364 C 86.231 223.762,85.903 224.085,86.027 224.081 C 86.257 224.074,88.057 222.641,87.835 222.641 C 87.768 222.641,87.283 222.967,86.757 223.364 M123.114 222.819 C 123.114 223.108,124.243 224.331,124.509 224.331 C 124.595 224.331,124.344 223.976,123.951 223.541 C 123.558 223.107,123.209 222.706,123.175 222.649 C 123.142 222.593,123.114 222.669,123.114 222.819 M342.822 223.479 C 343.157 223.671,343.595 223.827,343.796 223.826 C 343.996 223.826,343.792 223.665,343.342 223.470 C 342.306 223.020,342.028 223.025,342.822 223.479 M124.871 225.056 C 125.037 225.321,125.336 225.601,125.536 225.678 C 125.737 225.755,125.638 225.538,125.317 225.196 C 124.616 224.450,124.463 224.402,124.871 225.056 M346.715 224.689 C 346.715 224.882,348.479 225.568,348.618 225.429 C 348.687 225.360,348.683 225.304,348.610 225.304 C 348.538 225.304,348.081 225.138,347.597 224.936 C 347.112 224.733,346.715 224.622,346.715 224.689 M84.063 225.447 L 83.333 226.074 84.124 225.551 C 84.559 225.263,84.915 224.980,84.915 224.923 C 84.915 224.740,84.812 224.804,84.063 225.447 M170.808 225.000 C 170.811 225.100,171.037 225.456,171.310 225.791 L 171.805 226.399 171.420 225.608 C 171.053 224.857,170.797 224.602,170.808 225.000 M82.288 226.625 C 81.158 227.424,80.999 227.653,81.953 227.106 C 82.398 226.851,82.877 226.505,83.017 226.338 C 83.376 225.908,83.208 225.975,82.288 226.625 M127.234 227.820 C 128.093 228.858,128.913 229.780,129.055 229.868 C 129.198 229.956,128.612 229.179,127.753 228.141 C 126.895 227.103,126.075 226.181,125.933 226.093 C 125.790 226.005,126.376 226.782,127.234 227.820 M351.689 226.646 C 351.949 226.845,352.304 227.007,352.480 227.007 C 353.022 227.007,352.833 226.823,352.007 226.548 C 351.284 226.307,351.257 226.315,351.689 226.646 M172.475 227.616 C 172.606 227.883,172.892 228.321,173.110 228.589 L 173.506 229.075 173.267 228.589 C 173.136 228.321,172.850 227.883,172.632 227.616 L 172.236 227.129 172.475 227.616 M79.927 228.243 C 78.484 229.335,78.289 229.642,79.643 228.694 C 80.665 227.977,81.222 227.478,80.975 227.501 C 80.934 227.504,80.462 227.839,79.927 228.243 M174.004 229.927 C 174.301 230.328,174.584 230.657,174.634 230.657 C 174.683 230.657,174.529 230.328,174.292 229.927 C 174.055 229.526,173.772 229.197,173.663 229.197 C 173.554 229.197,173.708 229.526,174.004 229.927 M77.372 229.947 L 76.764 230.443 77.555 230.057 C 77.990 229.845,78.345 229.619,78.345 229.556 C 78.345 229.314,77.958 229.470,77.372 229.947 M175.669 232.360 C 176.214 233.163,176.715 233.820,176.782 233.820 C 176.849 233.820,176.458 233.163,175.912 232.360 C 175.367 231.557,174.866 230.900,174.799 230.900 C 174.732 230.900,175.124 231.557,175.669 232.360 M130.456 231.616 C 130.499 231.737,131.028 232.356,131.630 232.991 C 132.232 233.626,132.916 234.428,133.149 234.773 C 133.384 235.122,133.574 235.248,133.575 235.056 C 133.576 234.866,132.856 233.965,131.976 233.053 C 131.096 232.141,130.412 231.494,130.456 231.616 M213.391 232.238 C 213.392 232.372,213.617 232.755,213.890 233.090 C 214.221 233.494,214.303 233.535,214.136 233.212 C 213.726 232.418,213.389 231.978,213.391 232.238 M72.019 233.355 C 71.615 233.686,71.575 233.768,71.898 233.601 C 72.691 233.191,73.131 232.854,72.871 232.856 C 72.737 232.857,72.354 233.081,72.019 233.355 M248.783 233.476 L 248.054 234.103 248.844 233.580 C 249.279 233.292,249.635 233.010,249.635 232.952 C 249.635 232.770,249.532 232.833,248.783 233.476 M214.615 233.942 C 214.616 234.075,214.896 234.513,215.237 234.915 C 215.579 235.316,215.747 235.426,215.611 235.158 C 215.242 234.431,214.614 233.664,214.615 233.942 M176.886 234.152 C 176.886 234.201,177.222 234.611,177.634 235.064 L 178.382 235.888 177.816 234.979 C 177.341 234.214,176.886 233.810,176.886 234.152 M69.620 234.801 C 68.882 235.416,69.112 235.413,70.128 234.794 C 70.566 234.527,70.760 234.312,70.560 234.316 C 70.359 234.320,69.936 234.538,69.620 234.801 M216.542 236.736 C 216.965 237.270,217.438 237.785,217.593 237.881 C 217.748 237.977,217.453 237.540,216.938 236.911 C 216.422 236.281,215.949 235.766,215.887 235.766 C 215.825 235.766,216.120 236.203,216.542 236.736 M178.832 236.740 C 179.118 237.141,179.407 237.470,179.474 237.470 C 179.540 237.470,179.361 237.141,179.075 236.740 C 178.790 236.338,178.501 236.010,178.434 236.010 C 178.367 236.010,178.546 236.338,178.832 236.740 M283.281 237.591 C 283.283 238.260,283.330 238.505,283.386 238.135 C 283.442 237.765,283.441 237.218,283.383 236.919 C 283.325 236.620,283.279 236.922,283.281 237.591 M242.629 237.817 C 241.498 238.616,241.339 238.845,242.294 238.298 C 242.739 238.043,243.218 237.698,243.358 237.530 C 243.717 237.101,243.548 237.167,242.629 237.817 M180.057 238.335 C 180.067 238.579,181.262 240.119,181.264 239.889 C 181.265 239.815,180.991 239.383,180.657 238.929 C 180.322 238.476,180.053 238.208,180.057 238.335 M61.740 239.312 C 60.796 239.824,60.903 240.000,61.861 239.513 C 62.778 239.047,62.941 238.926,62.632 238.939 C 62.509 238.945,62.108 239.112,61.740 239.312 M239.845 239.728 C 238.057 241.178,237.956 241.316,239.355 240.397 C 240.192 239.847,240.876 239.347,240.876 239.285 C 240.876 239.043,240.481 239.212,239.845 239.728 M181.509 240.266 C 181.509 240.349,181.851 240.766,182.270 241.193 L 183.032 241.971 182.502 241.187 C 181.978 240.413,181.509 239.977,181.509 240.266 M183.698 243.066 C 184.122 243.601,184.524 244.039,184.591 244.039 C 184.658 244.039,184.366 243.601,183.942 243.066 C 183.518 242.530,183.116 242.092,183.049 242.092 C 182.982 242.092,183.274 242.530,183.698 243.066 M233.755 244.169 C 233.255 244.509,232.847 244.839,232.847 244.903 C 232.847 244.967,233.285 244.729,233.820 244.375 C 234.670 243.813,234.957 243.552,234.728 243.552 C 234.692 243.552,234.254 243.830,233.755 244.169 M185.374 245.216 C 185.644 245.596,186.058 246.061,186.293 246.250 C 186.528 246.439,186.350 246.128,185.898 245.560 C 184.970 244.392,184.626 244.166,185.374 245.216 M49.041 245.871 C 48.440 246.326,48.835 246.321,49.635 245.864 C 49.988 245.662,50.090 245.516,49.878 245.515 C 49.678 245.515,49.301 245.675,49.041 245.871 M143.671 246.702 C 143.937 247.002,144.375 247.362,144.644 247.503 C 145.133 247.759,145.133 247.759,144.650 247.215 C 144.384 246.915,143.946 246.555,143.677 246.414 C 143.188 246.158,143.188 246.159,143.671 246.702 M284.255 246.715 C 284.331 247.050,284.469 247.845,284.560 248.482 C 284.652 249.120,284.803 249.687,284.895 249.744 C 285.117 249.881,284.536 246.495,284.300 246.277 C 284.199 246.183,284.179 246.381,284.255 246.715 M46.121 247.331 C 45.862 247.528,45.759 247.689,45.892 247.689 C 46.026 247.689,46.348 247.528,46.608 247.331 C 46.868 247.135,46.971 246.974,46.837 246.974 C 46.703 246.974,46.381 247.135,46.121 247.331 M145.261 248.264 C 145.258 248.381,145.693 248.900,146.229 249.420 C 147.473 250.627,147.458 250.681,145.925 250.518 C 144.697 250.388,144.685 250.392,145.620 250.627 C 147.759 251.163,147.962 250.890,146.538 249.392 C 145.838 248.656,145.264 248.148,145.261 248.264 M188.078 248.330 C 188.078 248.460,188.461 248.938,188.929 249.392 C 189.398 249.846,189.781 250.296,189.781 250.392 C 189.781 250.488,190.137 250.939,190.572 251.395 C 191.007 251.851,193.024 254.023,195.054 256.221 C 197.084 258.420,199.376 260.821,200.146 261.557 C 200.917 262.293,199.842 261.089,197.757 258.881 C 194.887 255.842,189.829 250.209,188.162 248.195 C 188.116 248.140,188.078 248.200,188.078 248.330 M42.822 248.917 L 42.214 249.405 42.883 249.116 C 43.251 248.957,43.552 248.735,43.552 248.623 C 43.552 248.345,43.519 248.359,42.822 248.917 M103.589 248.838 C 104.024 248.892,104.735 248.892,105.170 248.838 C 105.605 248.784,105.249 248.740,104.380 248.740 C 103.510 248.740,103.154 248.784,103.589 248.838 M107.117 248.830 C 107.351 248.891,107.734 248.891,107.968 248.830 C 108.203 248.768,108.011 248.718,107.543 248.718 C 107.074 248.718,106.883 248.768,107.117 248.830 M110.165 248.840 C 110.737 248.892,111.613 248.891,112.111 248.839 C 112.609 248.786,112.141 248.744,111.071 248.745 C 110.000 248.746,109.592 248.789,110.165 248.840 M94.478 249.087 C 95.924 249.130,98.223 249.130,99.587 249.086 C 100.952 249.043,99.769 249.008,96.959 249.008 C 94.148 249.008,93.032 249.044,94.478 249.087 M118.076 249.086 C 118.985 249.133,120.408 249.132,121.239 249.085 C 122.070 249.038,121.326 248.999,119.586 249.000 C 117.847 249.000,117.167 249.039,118.076 249.086 M39.173 250.487 C 38.838 250.678,38.674 250.834,38.808 250.834 C 38.942 250.834,39.325 250.678,39.659 250.487 C 39.994 250.295,40.158 250.139,40.024 250.139 C 39.891 250.139,39.507 250.295,39.173 250.487 M31.995 253.515 C 31.460 253.768,31.108 253.984,31.212 253.995 C 31.498 254.024,33.090 253.330,33.090 253.175 C 33.090 252.995,33.102 252.991,31.995 253.515 M220.512 253.667 L 219.830 254.293 220.620 253.743 C 221.055 253.441,221.411 253.159,221.411 253.117 C 221.411 252.925,221.142 253.090,220.512 253.667 M27.859 255.118 C 27.248 255.412,27.228 255.446,27.737 255.323 C 28.072 255.242,28.450 255.079,28.577 254.960 C 28.892 254.666,28.719 254.704,27.859 255.118 M216.776 255.339 C 217.470 256.078,217.624 256.127,217.290 255.503 C 217.155 255.251,216.853 254.971,216.618 254.881 C 216.300 254.759,216.340 254.876,216.776 255.339 M286.044 257.131 C 286.200 258.602,286.570 260.043,286.586 259.246 C 286.592 258.978,286.442 258.102,286.252 257.299 L 285.907 255.839 286.044 257.131 M18.491 258.394 C 18.002 258.551,17.979 258.590,18.370 258.596 C 18.637 258.600,19.075 258.509,19.343 258.394 C 19.963 258.128,19.323 258.128,18.491 258.394 M18.613 261.201 C 19.015 261.385,19.507 261.532,19.708 261.528 C 19.909 261.524,19.690 261.373,19.221 261.192 C 18.111 260.764,17.673 260.771,18.613 261.201 M203.116 264.551 C 203.952 265.395,204.551 266.179,204.447 266.293 C 204.343 266.408,204.406 266.416,204.587 266.311 C 204.876 266.143,202.153 263.017,201.717 263.017 C 201.650 263.017,202.280 263.707,203.116 264.551 M26.628 264.342 C 26.888 264.550,27.271 264.712,27.480 264.701 C 27.807 264.684,27.809 264.663,27.494 264.546 C 27.293 264.472,26.910 264.310,26.642 264.187 C 26.164 263.967,26.163 263.969,26.628 264.342 M82.543 264.897 C 83.044 264.950,83.866 264.950,84.367 264.897 C 84.869 264.845,84.459 264.802,83.455 264.802 C 82.451 264.802,82.041 264.845,82.543 264.897 M89.359 264.895 C 89.728 264.951,90.276 264.949,90.575 264.891 C 90.874 264.834,90.572 264.788,89.903 264.790 C 89.234 264.792,88.989 264.839,89.359 264.895 M287.733 265.693 C 287.803 266.296,287.960 266.888,288.082 267.011 C 288.285 267.214,288.230 266.908,287.739 265.085 C 287.666 264.818,287.664 265.091,287.733 265.693 M29.440 265.502 C 29.746 265.827,31.144 266.412,31.144 266.215 C 31.144 266.093,30.952 265.938,30.718 265.871 C 30.484 265.804,30.073 265.664,29.805 265.561 C 29.538 265.457,29.373 265.431,29.440 265.502 M103.528 266.168 C 104.278 266.371,106.000 266.495,105.819 266.332 C 105.763 266.282,105.061 266.180,104.258 266.105 C 103.298 266.016,103.048 266.037,103.528 266.168 M111.702 267.395 C 111.916 267.520,112.573 267.681,113.162 267.752 C 114.175 267.876,114.161 267.863,112.895 267.528 C 111.313 267.109,111.190 267.095,111.702 267.395 M201.946 268.047 L 201.338 268.669 202.007 268.248 C 202.375 268.017,202.676 267.730,202.676 267.612 C 202.676 267.317,202.640 267.339,201.946 268.047 M323.888 268.724 C 323.730 269.511,323.611 270.382,323.624 270.661 C 323.636 270.940,323.800 270.401,323.987 269.465 C 324.174 268.528,324.293 267.656,324.251 267.528 C 324.209 267.400,324.046 267.938,323.888 268.724 M200.304 269.128 C 199.475 269.659,199.206 270.016,199.939 269.613 C 200.497 269.306,201.372 268.630,201.217 268.625 C 201.150 268.623,200.739 268.849,200.304 269.128 M40.511 270.803 C 40.912 271.069,41.350 271.287,41.484 271.287 C 41.618 271.287,41.369 271.069,40.931 270.802 C 39.898 270.172,39.560 270.173,40.511 270.803 M196.039 272.122 C 194.602 273.116,194.261 273.464,195.320 272.854 C 196.137 272.384,197.540 271.303,197.324 271.312 C 197.257 271.314,196.678 271.679,196.039 272.122 M132.360 272.384 C 132.828 272.565,133.376 272.712,133.577 272.712 C 133.777 272.712,133.558 272.565,133.090 272.384 C 132.622 272.204,132.074 272.056,131.873 272.056 C 131.673 272.056,131.892 272.204,132.360 272.384 M289.312 272.770 C 289.321 273.093,289.428 273.577,289.549 273.844 C 289.703 274.183,289.725 274.036,289.621 273.358 C 289.449 272.228,289.287 271.919,289.312 272.770 M46.229 273.701 C 46.563 273.975,46.946 274.199,47.080 274.200 C 47.341 274.202,46.901 273.865,46.107 273.455 C 45.784 273.288,45.825 273.370,46.229 273.701 M137.348 273.851 C 137.883 274.044,138.431 274.195,138.564 274.186 C 138.996 274.157,137.365 273.501,136.861 273.501 C 136.594 273.501,136.813 273.658,137.348 273.851 M193.370 273.907 C 193.002 274.135,192.701 274.409,192.701 274.516 C 192.701 274.623,193.029 274.468,193.431 274.171 C 194.072 273.696,194.299 273.465,194.100 273.486 C 194.066 273.489,193.738 273.679,193.370 273.907 M290.796 279.197 C 290.792 279.465,290.883 279.903,290.998 280.170 C 291.264 280.790,291.264 280.151,290.998 279.319 C 290.841 278.830,290.801 278.806,290.796 279.197 M57.221 280.123 C 57.398 280.298,57.762 280.518,58.029 280.613 C 58.417 280.750,58.392 280.686,57.908 280.301 C 57.229 279.760,56.721 279.629,57.221 280.123 M155.474 280.170 C 155.809 280.362,156.247 280.518,156.448 280.517 C 156.648 280.517,156.444 280.356,155.994 280.161 C 154.958 279.711,154.680 279.716,155.474 280.170 M61.537 282.809 C 61.885 283.242,62.774 283.812,62.774 283.602 C 62.774 283.539,62.418 283.239,61.983 282.934 C 61.422 282.540,61.292 282.504,61.537 282.809 M179.927 283.355 L 179.197 283.982 179.988 283.459 C 180.423 283.171,180.779 282.888,180.779 282.830 C 180.779 282.648,180.676 282.711,179.927 283.355 M64.112 284.554 C 64.380 284.772,64.818 285.058,65.085 285.189 L 65.572 285.428 65.085 285.032 C 64.818 284.814,64.380 284.528,64.112 284.397 L 63.625 284.158 64.112 284.554 M292.354 285.523 C 292.432 286.058,292.592 286.597,292.711 286.719 C 292.830 286.841,292.815 286.513,292.678 285.989 C 292.312 284.590,292.195 284.421,292.354 285.523 M176.764 285.544 L 176.034 286.172 176.825 285.648 C 177.260 285.360,177.616 285.078,177.616 285.020 C 177.616 284.838,177.513 284.901,176.764 285.544 M321.018 285.752 C 320.944 285.945,320.926 286.301,320.979 286.543 C 321.038 286.818,321.121 286.686,321.200 286.192 C 321.333 285.364,321.247 285.156,321.018 285.752 M170.738 289.668 C 170.238 290.008,169.830 290.338,169.830 290.402 C 169.830 290.466,170.268 290.228,170.803 289.874 C 171.653 289.311,171.940 289.051,171.711 289.051 C 171.675 289.051,171.237 289.329,170.738 289.668 M293.704 290.633 C 293.693 290.766,293.836 291.423,294.022 292.092 C 294.208 292.762,294.362 293.090,294.363 292.822 C 294.367 292.304,293.739 290.221,293.704 290.633 M75.182 292.303 C 75.182 292.370,75.511 292.658,75.912 292.944 C 76.314 293.230,76.642 293.409,76.642 293.342 C 76.642 293.275,76.314 292.987,75.912 292.701 C 75.511 292.415,75.182 292.236,75.182 292.303 M165.998 292.972 C 165.168 293.503,164.900 293.860,165.633 293.457 C 166.191 293.150,167.065 292.474,166.910 292.469 C 166.843 292.467,166.432 292.694,165.998 292.972 M239.416 292.768 C 239.416 292.815,239.772 293.113,240.207 293.431 C 240.696 293.790,240.866 293.848,240.653 293.586 C 240.329 293.187,239.416 292.583,239.416 292.768 M76.973 293.618 C 77.166 293.930,78.589 294.983,78.589 294.814 C 78.589 294.754,78.187 294.398,77.696 294.024 C 77.204 293.649,76.879 293.467,76.973 293.618 M164.040 294.265 C 162.910 295.064,162.751 295.292,163.705 294.746 C 164.150 294.491,164.629 294.145,164.769 293.978 C 165.128 293.548,164.960 293.615,164.040 294.265 M319.393 295.700 C 319.320 295.890,319.200 296.579,319.126 297.232 C 318.998 298.365,319.007 298.352,319.329 296.959 C 319.648 295.574,319.680 294.952,319.393 295.700 M276.350 296.352 C 275.816 297.289,275.974 297.288,276.642 296.350 C 276.928 295.949,277.073 295.621,276.963 295.622 C 276.854 295.623,276.577 295.951,276.350 296.352 M81.109 296.782 C 81.302 297.093,82.725 298.146,82.725 297.977 C 82.725 297.917,82.323 297.561,81.832 297.187 C 81.341 296.812,81.015 296.630,81.109 296.782 M295.404 297.329 C 295.780 298.453,296.163 298.854,295.864 297.810 C 295.735 297.360,295.515 296.877,295.375 296.737 C 295.215 296.577,295.226 296.797,295.404 297.329 M84.304 299.247 C 84.570 299.552,84.994 299.912,85.246 300.047 C 85.959 300.429,85.517 299.869,84.603 299.235 L 83.820 298.691 84.304 299.247 M153.667 302.920 C 153.757 303.254,153.932 303.692,154.056 303.893 C 154.212 304.147,154.232 304.072,154.118 303.650 C 154.029 303.315,153.854 302.877,153.730 302.676 C 153.574 302.423,153.554 302.497,153.667 302.920 M297.084 303.062 C 297.086 303.318,297.199 303.692,297.335 303.893 C 297.515 304.159,297.538 304.061,297.418 303.528 C 297.218 302.633,297.079 302.439,297.084 303.062 M89.379 303.104 C 89.475 303.258,89.897 303.629,90.319 303.929 C 90.741 304.230,91.008 304.349,90.912 304.195 C 90.817 304.042,90.395 303.670,89.973 303.370 C 89.551 303.070,89.284 302.950,89.379 303.104 M91.373 304.676 C 91.483 304.957,93.187 306.204,93.187 306.004 C 93.187 305.958,92.751 305.571,92.219 305.143 C 91.686 304.714,91.305 304.504,91.373 304.676 M268.237 306.144 L 267.275 307.178 268.309 306.216 C 269.271 305.321,269.455 305.109,269.271 305.109 C 269.231 305.109,268.766 305.575,268.237 306.144 M317.613 305.700 C 317.540 305.891,317.521 306.302,317.570 306.612 C 317.637 307.028,317.694 306.936,317.784 306.265 C 317.911 305.321,317.844 305.098,317.613 305.700 M155.261 307.305 C 155.629 308.394,155.836 308.606,155.613 307.664 C 155.518 307.263,155.335 306.827,155.207 306.697 C 155.079 306.566,155.103 306.840,155.261 307.305 M95.377 307.853 C 95.377 307.900,95.733 308.198,96.168 308.517 C 96.657 308.875,96.827 308.934,96.614 308.671 C 96.290 308.272,95.377 307.668,95.377 307.853 M315.815 309.784 C 315.815 310.046,316.554 311.679,316.673 311.679 C 316.740 311.679,316.626 311.274,316.419 310.779 C 316.054 309.906,315.815 309.512,315.815 309.784 M156.709 311.192 C 156.708 311.543,157.395 312.936,157.412 312.619 C 157.417 312.534,157.261 312.096,157.065 311.646 C 156.870 311.196,156.710 310.991,156.709 311.192 M263.867 311.437 C 263.624 311.705,263.483 311.983,263.553 312.053 C 263.624 312.123,263.863 311.903,264.085 311.565 C 264.569 310.825,264.473 310.768,263.867 311.437 M297.567 313.395 C 297.567 313.461,298.370 314.313,299.351 315.288 C 300.372 316.302,301.135 316.898,301.135 316.681 C 301.135 316.472,301.078 316.360,301.007 316.430 C 300.936 316.501,300.133 315.820,299.222 314.916 C 298.312 314.013,297.567 313.328,297.567 313.395 M158.160 314.996 C 158.155 315.148,158.311 315.641,158.506 316.091 C 158.702 316.542,158.866 316.786,158.871 316.634 C 158.876 316.482,158.721 315.989,158.525 315.539 C 158.330 315.089,158.166 314.844,158.160 314.996 M261.950 316.589 C 263.028 317.403,263.237 317.468,262.418 316.734 C 262.012 316.370,261.582 316.069,261.464 316.065 C 261.345 316.061,261.564 316.297,261.950 316.589 M159.987 320.012 C 160.078 320.313,160.252 320.667,160.375 320.797 C 160.497 320.928,160.474 320.682,160.323 320.250 C 160.015 319.366,159.731 319.165,159.987 320.012 M267.640 320.770 C 267.640 320.837,267.968 321.125,268.370 321.411 C 268.771 321.697,269.100 321.876,269.100 321.809 C 269.100 321.742,268.771 321.454,268.370 321.168 C 267.968 320.882,267.640 320.703,267.640 320.770 M270.004 322.641 C 270.435 323.088,270.849 323.393,270.923 323.318 C 270.998 323.243,270.646 322.878,270.140 322.505 L 269.221 321.828 270.004 322.641 M161.088 322.927 C 161.060 323.215,161.852 325.090,161.958 324.985 C 162.011 324.932,161.840 324.407,161.579 323.819 C 161.318 323.231,161.097 322.829,161.088 322.927 M272.019 324.164 C 272.019 324.224,272.421 324.580,272.913 324.954 C 273.404 325.329,273.729 325.511,273.635 325.360 C 273.443 325.048,272.019 323.995,272.019 324.164 M273.966 325.636 C 273.966 325.703,274.294 325.992,274.696 326.277 C 275.097 326.563,275.426 326.742,275.426 326.675 C 275.426 326.609,275.097 326.320,274.696 326.034 C 274.294 325.748,273.966 325.569,273.966 325.636 M275.669 326.838 C 275.669 326.887,275.998 327.220,276.399 327.577 C 276.800 327.935,277.129 328.138,277.129 328.028 C 277.129 327.918,276.800 327.586,276.399 327.289 C 275.998 326.992,275.669 326.789,275.669 326.838 M164.252 331.543 C 164.242 331.695,164.450 332.298,164.715 332.881 C 164.980 333.464,165.190 333.777,165.183 333.577 C 165.167 333.114,164.276 331.169,164.252 331.543 M281.752 331.711 C 281.752 331.778,282.190 332.179,282.725 332.603 C 283.260 333.027,283.698 333.319,283.698 333.253 C 283.698 333.186,283.260 332.784,282.725 332.360 C 282.190 331.936,281.752 331.644,281.752 331.711 M285.203 334.611 C 286.019 335.380,286.485 335.617,285.906 334.968 C 285.582 334.604,285.218 334.307,285.098 334.307 C 284.978 334.307,285.025 334.443,285.203 334.611 M287.523 336.502 C 287.953 336.953,288.347 337.274,288.397 337.214 C 288.448 337.154,288.095 336.784,287.614 336.392 L 286.740 335.680 287.523 336.502 M166.080 336.496 C 166.168 336.831,166.395 337.378,166.584 337.713 L 166.928 338.321 166.767 337.713 C 166.678 337.378,166.451 336.831,166.262 336.496 L 165.919 335.888 166.080 336.496 M291.727 339.896 C 294.132 342.118,296.166 343.861,295.967 343.528 C 295.718 343.112,294.549 342.068,292.336 340.285 C 291.533 339.638,291.259 339.463,291.727 339.896 M167.658 340.633 C 167.657 340.983,168.344 342.376,168.361 342.060 C 168.366 341.975,168.210 341.537,168.014 341.086 C 167.819 340.636,167.659 340.432,167.658 340.633 M296.890 344.412 C 297.254 344.795,297.596 345.059,297.649 344.999 C 297.702 344.939,297.405 344.626,296.987 344.303 L 296.229 343.716 296.890 344.412 M170.560 348.741 C 170.560 348.998,171.276 350.365,171.410 350.365 C 171.469 350.365,171.448 350.173,171.363 349.939 C 171.167 349.397,170.560 348.493,170.560 348.741 M308.289 354.786 C 309.838 356.302,312.397 358.856,313.977 360.462 L 316.850 363.382 314.113 360.431 C 312.608 358.808,310.048 356.254,308.425 354.754 L 305.474 352.029 308.289 354.786 M317.751 364.538 C 318.760 365.612,318.978 365.805,318.978 365.622 C 318.978 365.583,318.458 365.063,317.822 364.467 L 316.667 363.382 317.751 364.538 M318.978 366.013 C 318.978 366.055,319.334 366.411,319.769 366.804 L 320.560 367.518 319.845 366.727 C 319.179 365.990,318.978 365.825,318.978 366.013 M322.141 369.544 C 322.141 369.654,322.432 370.010,322.788 370.335 L 323.435 370.925 322.864 370.134 C 322.270 369.311,322.141 369.206,322.141 369.544 " stroke="none" fill="#000000" fill-rule="evenodd"></path></g></svg>