<?xml version="1.0" encoding="UTF-8"?>
<!DOCTYPE svg PUBLIC "-//W3C//DTD SVG 1.1//EN" "http://www.w3.org/Graphics/SVG/1.1/DTD/svg11.dtd">
<svg xmlns="http://www.w3.org/2000/svg" version="1.1" width="1644px" height="1644px" style="shape-rendering:geometricPrecision; text-rendering:geometricPrecision; image-rendering:optimizeQuality; fill-rule:evenodd; clip-rule:evenodd" xmlns:xlink="http://www.w3.org/1999/xlink">
<g><path style="opacity:0.988" fill="#421c43" d="M 691.5,249.5 C 717.659,265.841 743.493,282.841 769,300.5C 775.072,324.997 780.405,349.664 785,374.5C 790.001,397.007 796.168,419.173 803.5,441C 798.346,446.268 792.346,450.602 785.5,454C 751.345,470.245 717.345,486.745 683.5,503.5C 680.478,485.71 673.978,469.376 664,454.5C 662,456.167 660,457.833 658,459.5C 656.907,457.651 655.574,455.984 654,454.5C 622.71,478.062 589.21,497.895 553.5,514C 518.312,529.752 481.978,542.418 444.5,552C 449.383,574.648 455.883,596.814 464,618.5C 465.781,621.333 467.281,624.333 468.5,627.5C 471.533,628.338 474.533,628.004 477.5,626.5C 478.328,627.415 479.328,628.081 480.5,628.5C 511.364,620.845 538.698,606.678 562.5,586C 574.939,575.896 586.439,564.729 597,552.5C 605.302,556.484 613.636,560.484 622,564.5C 621.701,576.144 622.035,587.811 623,599.5C 629.437,631.141 638.103,662.141 649,692.5C 649.635,694.635 649.301,696.635 648,698.5C 626.671,716.659 605.171,734.659 583.5,752.5C 575.547,733.954 568.213,715.287 561.5,696.5C 559.5,698.167 557.5,699.833 555.5,701.5C 554.167,699.833 552.833,698.167 551.5,696.5C 536.905,707.398 522.239,718.231 507.5,729C 506.398,731.401 506.231,733.901 507,736.5C 513.384,761.057 522.05,784.724 533,807.5C 576.347,894.573 630.347,974.24 695,1046.5C 711.184,1064.03 728.517,1080.03 747,1094.5C 747.667,1095.83 747.667,1097.17 747,1098.5C 741.812,1103.18 736.312,1107.52 730.5,1111.5C 710.218,1123.65 689.884,1135.81 669.5,1148C 665.15,1151.33 660.984,1154.83 657,1158.5C 566.827,1120.18 472.493,1096.51 374,1087.5C 361.665,1088.17 348.665,1088.17 335,1087.5C 325.166,1088.07 315.332,1089.07 305.5,1090.5C 335.503,1104.88 366.169,1118.38 397.5,1131C 422.344,1142.03 446.844,1153.2 471,1164.5C 471.667,1165.5 471.667,1166.5 471,1167.5C 450.747,1205.01 429.747,1242.01 408,1278.5C 362.72,1241.67 316.553,1206.51 269.5,1173C 209.001,1131.75 144.334,1098.42 75.5,1073C 71.2529,1071.1 67.2529,1068.93 63.5,1066.5C 137.014,1041.38 206.681,1010.21 272.5,973C 288.69,962.595 305.357,952.262 322.5,942C 338.601,930.866 354.435,919.366 370,907.5C 379.791,916.394 387.124,927.061 392,939.5C 394.731,942.563 397.064,945.896 399,949.5C 403.179,953.012 407.012,956.846 410.5,961C 408.088,963.61 405.421,965.943 402.5,968C 379.593,981.287 356.259,993.787 332.5,1005.5C 321.443,1011.91 310.443,1018.41 299.5,1025C 302.758,1025.21 305.924,1025.71 309,1026.5C 403.263,1019.34 497.596,1020.34 592,1029.5C 596.153,1028.67 600.32,1028.5 604.5,1029C 538.81,957.625 476.643,883.125 418,805.5C 415.708,806.79 413.708,808.457 412,810.5C 410.733,806.784 408.566,805.617 405.5,807C 380.631,826.199 355.464,845.032 330,863.5C 300.246,824.685 275.58,782.685 256,737.5C 253.67,730.511 251.337,723.511 249,716.5C 248.503,713.854 248.336,711.187 248.5,708.5C 265.417,706.343 282.083,702.843 298.5,698C 314.316,692.697 330.316,688.031 346.5,684C 350.766,682.913 354.766,681.246 358.5,679C 351.832,668.99 345.998,658.49 341,647.5C 302.409,557.977 269.742,466.31 243,372.5C 241.138,365.194 239.804,357.861 239,350.5C 245.801,348.01 252.634,345.51 259.5,343C 312.551,328.321 365.551,313.487 418.5,298.5C 417.072,321.157 415.739,343.824 414.5,366.5C 414.596,374.858 415.096,383.192 416,391.5C 420.103,391.477 424.27,391.811 428.5,392.5C 440.206,390.489 451.873,388.323 463.5,386C 533.117,365.503 596.45,333.003 653.5,288.5C 662.79,280.38 671.957,272.046 681,263.5C 685.102,259.239 688.602,254.572 691.5,249.5 Z"/></g>
<g><path style="opacity:0.988" fill="#421c43" d="M 1000.5,277.5 C 998.862,287.728 996.362,298.061 993,308.5C 984.674,344.054 982.007,380.054 985,416.5C 986.334,428.67 988.501,440.67 991.5,452.5C 994.89,452.223 998.057,451.223 1001,449.5C 1001.48,450.448 1001.65,451.448 1001.5,452.5C 1034.53,441.435 1067.53,430.268 1100.5,419C 1123.93,411.969 1147.43,405.135 1171,398.5C 1187.35,395.221 1203.85,391.387 1220.5,387C 1230.79,385.175 1241.12,383.675 1251.5,382.5C 1252.69,411.5 1253.52,440.5 1254,469.5C 1214.05,500.751 1181.05,538.084 1155,581.5C 1110.67,659.13 1087,742.796 1084,832.5C 1082.54,887.66 1089.54,941.66 1105,994.5C 1105.67,996.167 1105.67,997.833 1105,999.5C 1069.42,1028.54 1034.92,1059.54 1001.5,1092.5C 1028.52,1116.69 1055.68,1140.69 1083,1164.5C 1083.67,1165.83 1083.67,1167.17 1083,1168.5C 1063.93,1191.56 1045.27,1214.89 1027,1238.5C 997.652,1214.48 968.318,1190.48 939,1166.5C 936.099,1172.47 932.766,1172.47 929,1166.5C 847.24,1256.59 774.24,1353.25 710,1456.5C 682.828,1385.77 656.328,1314.1 630.5,1241.5C 630.833,1240.5 631.167,1239.5 631.5,1238.5C 701.842,1190.22 771.509,1141.72 840.5,1093C 778.248,1032.78 725.081,965.612 681,891.5C 665.76,864.025 650.76,836.358 636,808.5C 635.333,807.5 635.333,806.5 636,805.5C 656.735,789.102 676.235,771.269 694.5,752C 698.988,748.257 703.654,744.757 708.5,741.5C 715.761,763.909 723.928,785.909 733,807.5C 765.235,876.591 802.235,942.258 844,1004.5C 852.426,1015.68 861.092,1026.68 870,1037.5C 875.027,1041.86 879.694,1046.53 884,1051.5C 885.709,1049.82 887.376,1048.16 889,1046.5C 891.333,1047.5 893,1049.17 894,1051.5C 925.841,1027.14 958.341,1003.81 991.5,981.5C 999.791,975.382 1007.96,969.049 1016,962.5C 1024.8,957.765 1032.97,951.598 1040.5,944C 1033.99,929.138 1027.32,914.305 1020.5,899.5C 1019.64,898.417 1018.64,898.251 1017.5,899C 1015.76,900.62 1013.93,902.12 1012,903.5C 1011.74,901.349 1010.74,899.682 1009,898.5C 971.798,924.692 934.298,950.525 896.5,976C 895.584,976.374 894.75,976.874 894,977.5C 887.951,970.452 882.284,963.119 877,955.5C 857.833,923.359 840.166,890.359 824,856.5C 782.202,765.136 747.036,671.303 718.5,575C 718.833,574.167 719.167,573.333 719.5,572.5C 787.374,539.732 856.374,509.399 926.5,481.5C 910.838,459.509 898.338,435.843 889,410.5C 881.926,387.053 878.426,363.053 878.5,338.5C 919.771,318.47 960.437,298.137 1000.5,277.5 Z M 1020.5,588.5 C 1021.38,588.369 1022.04,588.702 1022.5,589.5C 1021.41,590.609 1021.41,591.609 1022.5,592.5C 1025.5,591.167 1028.5,589.833 1031.5,588.5C 1031.83,588.833 1032.17,589.167 1032.5,589.5C 1022.57,613.526 1013.41,637.859 1005,662.5C 998.692,687.105 996.359,712.105 998,737.5C 998.818,756.958 1000.48,776.291 1003,795.5C 979.324,809.837 955.657,824.17 932,838.5C 931.261,836.779 930.427,835.113 929.5,833.5C 926.914,835.043 924.414,836.709 922,838.5C 918.262,810.925 914.928,783.259 912,755.5C 907.159,720.791 899.325,686.791 888.5,653.5C 921.879,637.46 955.212,620.626 988.5,603C 999.462,598.344 1010.13,593.511 1020.5,588.5 Z"/></g>
<g><path style="opacity:0.988" fill="#421c43" d="M 1379.5,664.5 C 1378.76,666.426 1377.76,668.259 1376.5,670C 1427.71,643.806 1477.21,614.639 1525,582.5C 1531.32,611.464 1539.66,639.797 1550,667.5C 1553.32,674.467 1556.82,681.301 1560.5,688C 1539.33,741.541 1518.5,795.375 1498,849.5C 1492.41,868.285 1486.41,886.951 1480,905.5C 1477.14,917.327 1473.97,928.993 1470.5,940.5C 1428.46,924.824 1386.12,909.658 1343.5,895C 1342.12,882.865 1342.29,870.699 1344,858.5C 1348.41,843.853 1353.24,829.353 1358.5,815C 1357.73,813.779 1356.73,812.779 1355.5,812C 1343.52,805.679 1331.18,800.345 1318.5,796C 1317.18,794.341 1315.52,793.174 1313.5,792.5C 1311.89,793.32 1311.22,794.654 1311.5,796.5C 1308.56,795.03 1305.56,793.864 1302.5,793C 1293.48,817.586 1286.31,842.752 1281,868.5C 1258.56,982.329 1255.56,1096.66 1272,1211.5C 1276.47,1234.7 1282.8,1257.37 1291,1279.5C 1291.91,1273.99 1293.25,1268.66 1295,1263.5C 1296.61,1268.99 1298.61,1274.32 1301,1279.5C 1311.66,1217.52 1322.16,1155.52 1332.5,1093.5C 1374.23,1104.79 1415.89,1116.29 1457.5,1128C 1458.43,1128.39 1459.09,1129.05 1459.5,1130C 1437.17,1179.2 1415.67,1228.7 1395,1278.5C 1371.92,1336.37 1354.59,1395.71 1343,1456.5C 1338.57,1480.72 1334.91,1505.06 1332,1529.5C 1313.31,1506.47 1293.47,1484.3 1272.5,1463C 1211.05,1404.86 1146.05,1351.2 1077.5,1302C 1075.88,1300.7 1074.54,1299.2 1073.5,1297.5C 1078.24,1288.36 1083.74,1279.7 1090,1271.5C 1099.66,1260.17 1109.66,1249.17 1120,1238.5C 1126.94,1228.95 1134.1,1219.61 1141.5,1210.5C 1169.82,1240.32 1197.99,1270.32 1226,1300.5C 1225.25,1296.57 1224.41,1292.57 1223.5,1288.5C 1227.8,1292.3 1231.96,1296.3 1236,1300.5C 1236.17,1300 1236.33,1299.5 1236.5,1299C 1207.15,1205.59 1184.15,1110.26 1167.5,1013C 1167.74,1012.13 1168.07,1011.29 1168.5,1010.5C 1155.09,931.134 1155.26,851.8 1169,772.5C 1190.97,663.638 1246.97,577.305 1337,513.5C 1343.27,518.05 1349.77,522.216 1356.5,526C 1386.65,540.246 1417.32,553.079 1448.5,564.5C 1448.65,565.552 1448.48,566.552 1448,567.5C 1422.38,600.122 1396.38,632.456 1370,664.5C 1368.83,666.333 1367.67,668.167 1366.5,670C 1366.83,670.167 1367.17,670.333 1367.5,670.5C 1371.24,667.962 1375.24,665.962 1379.5,664.5 Z"/></g>
<g><path style="opacity:0.075" fill="#421c43" d="M 1379.5,663.5 C 1380.83,664.167 1380.83,664.167 1379.5,663.5 Z"/></g>
<g><path style="opacity:0.02" fill="#421c43" d="M 1223.5,1288.5 C 1222.83,1287.17 1222.83,1287.17 1223.5,1288.5 Z"/></g>
</svg>
