<?xml version="1.0" encoding="UTF-8"?>
<!DOCTYPE svg PUBLIC "-//W3C//DTD SVG 1.1//EN" "http://www.w3.org/Graphics/SVG/1.1/DTD/svg11.dtd">
<!-- Creator: CorelDRAW X7 -->
<svg xmlns="http://www.w3.org/2000/svg" xml:space="preserve" width="420mm" height="297mm" version="1.1" style="shape-rendering:geometricPrecision; text-rendering:geometricPrecision; image-rendering:optimizeQuality; fill-rule:evenodd; clip-rule:evenodd"
viewBox="0 0 42000 29700"
 xmlns:xlink="http://www.w3.org/1999/xlink">
 <defs>
  <style type="text/css">
   <![CDATA[
    .fil1 {fill:#FEFEFE}
    .fil3 {fill:#2B2A29}
    .fil2 {fill:#2B2A29}
    .fil0 {fill:#00A0E3}
   ]]>
  </style>
 </defs>
 <g id="Layer_x0020_1">
  <metadata id="CorelCorpID_0Corel-Layer"/>
  <circle class="fil0" cx="14118" cy="7692" r="6228"/>
  <path class="fil1" d="M10646 6338c-232,-315 -827,-2076 -865,-2351 243,-84 1126,-317 1341,-390 -10,311 -43,478 -15,694 755,-72 1752,-738 1928,-1053 222,149 364,244 586,392 78,291 117,635 246,1006 -217,151 -681,315 -898,466 -89,-275 -24,-143 -154,-392 -441,342 -1028,588 -1509,700 64,255 55,301 178,571 207,-56 460,-126 872,-566 73,33 146,67 220,100 -36,187 60,559 194,929l-517 441c-108,-283 -136,-331 -162,-452 -116,84 -231,169 -346,253 81,610 1059,2117 1730,2617 -76,96 -595,353 -670,449 -135,-51 -246,-99 -346,-143l-1 6c-234,-84 -483,-160 -732,-222 -14,-1 -28,-2 -43,-3l-4 -9c-503,-121 -1007,-182 -1399,-127 126,60 1098,479 1223,539 -51,113 -417,720 -468,833 -956,-752 -1455,-1143 -2508,-1535 773,-235 1691,-722 2224,-1160 222,211 90,196 312,408 -112,97 -702,372 -814,468 690,-32 1443,-53 2161,30 -890,-976 -1196,-1429 -1353,-1623 -63,51 -538,395 -600,446 -195,-198 -590,-907 -608,-1123 36,35 577,-136 797,-199zm4639 -2902c-313,157 -626,314 -938,472 -9,333 98,668 343,1005l24 2c-583,229 -1131,473 -1513,665 492,1647 1128,2793 1279,2892 178,-133 689,-465 866,-598 54,116 107,233 161,349 -229,179 -832,589 -1061,767 -413,-367 -1162,-1769 -1265,-2255 -207,151 -362,350 -569,501 219,404 588,1207 1472,2044 -625,433 -888,616 -1513,1049 197,531 394,1062 592,1593 476,-760 1004,-1476 1602,-2129l674 540 430 -535 -600 -524c240,-233 490,-456 753,-669 -394,-1261 -45,-2942 1059,-3782 -6,-206 -12,-412 -18,-618 -480,63 -1164,270 -1850,520 -111,-379 -74,-814 72,-1289zm-818 2692c172,572 153,622 242,1349 97,-58 431,-258 528,-316 -85,-688 -68,-814 216,-1497 -212,62 -774,402 -986,464zm3120 3147c127,24 829,239 956,263 -516,1152 -785,1752 -915,2912 -450,-610 -1321,-1287 -1897,-1714 157,-276 345,-375 502,-652 125,89 551,614 676,703 -572,-1913 -1186,-4333 739,-5659 73,96 471,257 818,392 -189,257 -509,606 -617,778 488,-260 883,-502 1161,-690 20,152 129,595 251,780 -129,338 -583,1438 -633,1811 -115,-29 -866,-313 -981,-342 0,-294 41,-316 126,-570 -185,-115 -162,-53 -347,-169 -293,749 -457,2577 -75,3525 30,-142 207,-1226 236,-1368z"/>
  <path class="fil0" d="M25737 6338c-232,-315 -827,-2076 -865,-2351 243,-84 1126,-317 1341,-390 -10,311 -43,478 -15,694 755,-72 1752,-738 1928,-1053 222,149 364,244 586,392 78,291 117,635 246,1006 -217,151 -681,315 -898,466 -89,-275 -24,-143 -154,-392 -441,342 -1028,588 -1509,700 64,255 55,301 178,571 207,-56 460,-126 872,-566 73,33 146,67 220,100 -36,187 60,559 194,929l-517 441c-108,-283 -136,-331 -162,-452 -115,84 -231,169 -346,253 81,610 1059,2117 1730,2617 -76,96 -595,353 -670,449 -135,-51 -246,-99 -346,-143l-1 6c-234,-84 -483,-160 -732,-222 -14,-1 -28,-2 -42,-3l-5 -9c-503,-121 -1007,-182 -1399,-127 126,60 1098,479 1223,539 -51,113 -417,720 -468,833 -956,-752 -1455,-1143 -2508,-1535 773,-235 1691,-722 2224,-1160 222,211 90,196 312,408 -112,97 -702,372 -814,468 690,-32 1443,-53 2161,30 -890,-976 -1196,-1429 -1353,-1623 -63,51 -538,395 -600,446 -195,-198 -590,-907 -608,-1123 36,35 577,-136 797,-199zm4639 -2902c-313,157 -626,314 -938,472 -9,333 98,668 343,1005l24 2c-583,229 -1131,473 -1513,665 492,1647 1128,2793 1279,2892 178,-133 689,-465 866,-598 54,116 107,233 161,349 -229,179 -832,589 -1061,767 -413,-367 -1162,-1769 -1265,-2255 -207,151 -362,350 -568,501 218,404 587,1207 1471,2044 -624,433 -888,616 -1513,1049 197,531 394,1062 592,1593 476,-760 1004,-1476 1602,-2129l674 540 430 -535 -600 -524c240,-233 490,-456 753,-669 -394,-1261 -45,-2942 1059,-3782 -6,-206 -12,-412 -18,-618 -480,63 -1164,270 -1850,520 -111,-379 -74,-814 72,-1289zm-818 2692c172,572 153,622 242,1349 97,-58 431,-258 528,-316 -85,-688 -68,-814 216,-1497 -212,62 -774,402 -986,464zm3120 3147c127,24 829,239 956,263 -516,1152 -785,1752 -915,2912 -450,-610 -1321,-1287 -1897,-1714 157,-276 345,-375 502,-652 125,89 551,614 676,703 -572,-1913 -1186,-4333 739,-5659 73,96 471,257 818,392 -189,257 -509,606 -617,778 488,-260 883,-502 1161,-690 20,152 129,595 251,780 -129,338 -583,1438 -632,1811 -116,-29 -867,-313 -982,-342 0,-294 41,-316 126,-570 -185,-115 -162,-53 -347,-169 -293,749 -457,2577 -75,3525 30,-142 207,-1226 236,-1368z"/>
  <circle class="fil2" cx="13549" cy="21478" r="6228"/>
  <path class="fil1" d="M10077 20123c-232,-314 -827,-2075 -865,-2350 243,-85 1126,-317 1341,-390 -10,310 -43,478 -15,694 755,-72 1752,-738 1928,-1053 222,148 364,244 586,392 78,291 117,635 246,1006 -217,151 -681,315 -898,466 -89,-275 -24,-143 -154,-392 -442,342 -1028,588 -1509,700 64,255 55,301 178,571 207,-56 460,-126 872,-566 73,33 146,66 220,100 -36,187 60,559 194,929l-517 441c-109,-283 -136,-331 -162,-452 -116,84 -231,169 -346,253 81,609 1059,2117 1730,2617 -76,96 -595,353 -670,448 -135,-50 -246,-98 -346,-142l-1 6c-234,-84 -483,-160 -733,-222 -13,-1 -27,-2 -42,-3l-4 -9c-504,-121 -1007,-182 -1399,-127 126,60 1098,479 1223,539 -51,113 -417,719 -468,833 -956,-752 -1455,-1143 -2508,-1535 773,-235 1691,-722 2224,-1160 222,211 90,196 312,408 -112,96 -702,371 -814,468 690,-32 1443,-53 2161,30 -890,-976 -1196,-1430 -1354,-1624 -62,51 -537,395 -599,447 -195,-198 -590,-908 -608,-1123 36,35 577,-136 797,-200zm4639 -2902c-313,158 -626,315 -939,472 -8,334 99,669 344,1005l24 3c-583,229 -1131,472 -1513,664 491,1647 1128,2794 1279,2893 178,-133 689,-466 866,-599 54,117 107,234 161,350 -229,179 -832,589 -1061,767 -413,-367 -1162,-1769 -1265,-2256 -207,152 -362,350 -569,502 219,404 588,1207 1472,2044 -625,433 -888,616 -1513,1049 197,531 394,1062 591,1593 477,-761 1005,-1476 1603,-2129l674 540 430 -535 -600 -524c240,-233 490,-456 753,-669 -394,-1261 -45,-2943 1059,-3782 -6,-206 -12,-412 -18,-618 -480,63 -1164,270 -1850,520 -111,-379 -74,-814 72,-1290zm-818 2693c172,571 153,622 242,1349 97,-58 431,-258 528,-316 -85,-688 -69,-814 216,-1497 -212,62 -774,402 -986,464zm3120 3147c127,23 829,239 956,262 -516,1152 -785,1753 -915,2913 -450,-611 -1321,-1287 -1897,-1714 157,-277 345,-375 502,-652 125,89 551,614 676,703 -572,-1913 -1186,-4334 739,-5659 73,96 471,257 818,392 -189,257 -509,605 -617,778 488,-260 883,-502 1161,-690 20,152 129,595 251,779 -129,339 -583,1439 -633,1812 -115,-29 -866,-314 -981,-342 -1,-294 41,-316 126,-570 -185,-116 -162,-53 -347,-169 -293,749 -457,2576 -75,3525 29,-142 206,-1226 236,-1368z"/>
  <path class="fil3" d="M25168 20123c-232,-314 -827,-2075 -865,-2350 243,-85 1126,-317 1341,-390 -10,310 -43,478 -15,694 755,-72 1752,-738 1928,-1053 222,148 364,244 586,392 78,291 117,635 246,1006 -217,151 -681,315 -898,466 -89,-275 -24,-143 -154,-392 -442,342 -1028,588 -1509,700 64,255 55,301 178,571 207,-56 460,-126 872,-566 73,33 146,66 220,100 -36,187 60,559 194,929l-517 441c-109,-283 -136,-331 -162,-452 -116,84 -231,169 -346,253 81,609 1059,2117 1730,2617 -76,96 -595,353 -670,448 -135,-50 -246,-98 -346,-142l-1 6c-234,-84 -483,-160 -733,-222 -13,-1 -27,-2 -42,-3l-4 -9c-504,-121 -1007,-182 -1399,-127 126,60 1098,479 1223,539 -51,113 -417,719 -468,833 -956,-752 -1455,-1143 -2508,-1535 773,-235 1691,-722 2224,-1160 222,211 90,196 312,408 -112,96 -702,371 -814,468 690,-32 1443,-53 2161,30 -890,-976 -1196,-1430 -1354,-1624 -62,51 -537,395 -599,447 -195,-198 -590,-908 -608,-1123 36,35 577,-136 797,-200zm4639 -2902c-313,158 -626,315 -938,472 -9,334 98,669 343,1005l24 3c-583,229 -1131,472 -1513,664 491,1647 1128,2794 1279,2893 178,-133 689,-466 866,-599 54,117 107,234 161,350 -229,179 -832,589 -1061,767 -413,-367 -1162,-1769 -1265,-2256 -207,152 -362,350 -569,502 219,404 588,1207 1472,2044 -625,433 -888,616 -1513,1049 197,531 394,1062 591,1593 477,-761 1005,-1476 1603,-2129l674 540 430 -535 -600 -524c240,-233 490,-456 753,-669 -394,-1261 -45,-2943 1059,-3782 -6,-206 -12,-412 -18,-618 -480,63 -1164,270 -1850,520 -111,-379 -74,-814 72,-1290zm-818 2693c172,571 153,622 242,1349 97,-58 431,-258 528,-316 -85,-688 -69,-814 216,-1497 -212,62 -774,402 -986,464zm3120 3147c127,23 829,239 956,262 -516,1152 -785,1753 -915,2913 -450,-611 -1321,-1287 -1897,-1714 157,-277 345,-375 502,-652 125,89 551,614 676,703 -572,-1913 -1186,-4334 739,-5659 73,96 471,257 818,392 -189,257 -509,605 -617,778 488,-260 883,-502 1161,-690 20,152 129,595 251,779 -129,339 -583,1439 -633,1812 -115,-29 -866,-314 -981,-342 -1,-294 41,-316 126,-570 -185,-116 -162,-53 -347,-169 -293,749 -457,2576 -75,3525 29,-142 206,-1226 236,-1368z"/>
 </g>
</svg>
